<svg width="83" height="89" viewBox="0 0 83 89" fill="none" xmlns="http://www.w3.org/2000/svg">
<g id="Group">
<path id="Vector" d="M10.0466 0.754837C8.41948 1.13566 6.8616 1.9319 5.23448 3.21283C1.53019 6.12086 -1.10089 14.2218 0.456988 18.03C1.11476 19.7263 5.51144 26.2002 6.09997 26.4425C7.06932 26.8233 7.69247 25.8886 7.79633 23.9499L7.90018 22.0805L10.1505 21.4227C13.1624 20.5918 13.5085 20.6264 14.1317 21.8727C14.5818 22.7036 14.8933 22.9113 15.6203 22.8075C17.3167 22.5998 16.9705 21.3881 13.647 16.1259C10.2889 10.7599 8.66181 9.27124 5.82301 8.82119L4.29975 8.61347L4.78443 7.64413C5.4422 6.39782 7.51937 4.59761 9.25035 3.80136C11.1198 2.93587 17.1436 2.90125 19.8785 3.6975C24.6214 5.1169 26.9409 6.95174 31.7184 13.1833C33.8648 15.9528 36.1843 18.8608 36.9113 19.6571L38.2269 21.0765L36.4267 23.4652C34.0379 26.6156 32.5493 29.6968 33.034 30.5622C33.7263 31.8778 34.7996 31.1854 36.2882 28.4505C37.8115 25.6809 40.0617 22.8767 40.7541 22.8767C41.2388 22.8767 43.6275 24.6423 46.4663 27.0311C48.5781 28.8313 52.3517 33.1933 54.3596 36.2052C55.7097 38.2132 61.7335 49.9146 61.7335 50.5031C61.7335 51.0916 57.6138 51.2647 54.8789 50.78C49.4782 49.8453 43.3852 46.418 38.5038 41.5713C36.219 39.3556 35.7689 38.6632 35.215 36.8976C34.488 34.5089 33.8994 33.8165 32.9647 34.3358C31.7184 34.9935 32.3762 38.1439 34.3841 41.0866C35.0073 41.9174 36.9113 43.7869 38.6423 45.2063C42.9698 48.7375 43.4891 49.2568 46.5702 53.0649C48.0588 54.8998 50.4476 57.3231 51.867 58.5002C54.775 60.8197 54.7404 61.1313 51.6593 61.0967C49.5475 61.062 47.228 59.885 44.77 57.6001C43.0044 55.973 42.6236 55.7653 42.0004 56.1115C41.0657 56.5961 41.1349 57.2885 42.1735 58.6733C43.0736 59.8504 46.8471 62.6892 47.4703 62.6892C48.5435 62.6892 47.9204 63.5547 45.2547 65.7703C42.6928 67.8821 42.0697 68.2283 40.9618 68.2283H39.6463L39.5078 63.7624C39.4039 59.4349 39.3693 59.2272 38.3654 57.7732C37.673 56.8038 35.9766 55.3844 33.3455 53.6189C25.3138 48.2182 23.0982 44.8601 22.2673 36.8976C21.8519 32.8471 21.0902 29.6621 19.9824 27.1003C19.2554 25.4386 19.0823 25.2655 18.2168 25.3693C17.3859 25.4732 17.2475 25.6117 17.3167 26.5118C17.3167 27.0657 17.7667 28.6582 18.2514 30.0083C18.8053 31.5316 19.3246 34.1973 19.6708 37.0361C20.2594 42.0905 21.1941 45.0332 23.1328 47.9412C24.5868 50.1569 27.3217 52.7534 29.8143 54.3805L31.6146 55.5229V61.8929V68.2283H30.0567C27.7718 68.2283 26.2832 68.9899 24.8984 70.894C23.3405 72.9712 23.0289 74.0097 23.7559 74.7021C24.5176 75.4638 25.1407 75.1176 26.7678 72.9365C28.1526 71.0325 28.2218 70.9978 29.8836 70.9978C30.8529 70.9978 31.6146 71.1017 31.6146 71.2402C31.6146 71.4133 31.303 71.898 30.9222 72.3826C30.1259 73.4212 30.0567 74.2175 30.7491 74.806C31.5107 75.4638 32.3762 74.9099 33.6917 72.9712L34.9034 71.1709L41.8966 71.0671L48.8551 70.9978L49.9283 72.6942C51.3131 74.8406 51.8324 75.2561 52.7325 74.9791C53.7711 74.6675 53.598 73.4905 52.2132 71.4133C50.7592 69.3015 49.859 68.6437 47.955 68.2975L46.5356 68.0552L48.7166 66.255L50.9323 64.4548L65.9225 76.7101C74.1966 83.4609 81.2243 89 81.5359 89C81.8821 89 82.2975 88.6884 82.5052 88.3422C82.7822 87.7883 80.7743 83.4263 70.7346 62.8276C62.5298 46.0026 57.8562 36.863 56.2983 34.5089C53.2171 29.8352 47.1587 23.7768 42.5889 20.7995C39.3693 18.6878 38.9885 18.3069 34.8342 12.9063C28.5334 4.77071 25.7639 2.52044 19.9824 1.06641C17.1436 0.339409 12.4353 0.200928 10.0466 0.754837ZM6.96546 11.9369C7.48475 12.2139 8.17714 12.7332 8.52334 13.114C9.11187 13.7718 9.11187 13.8064 7.55399 14.7411C5.75377 15.7797 4.95753 17.1991 4.95753 19.3109V20.6264L3.81508 18.8955C2.84573 17.4068 2.70726 16.8875 2.70726 14.9142C2.70726 11.7985 2.91497 11.4523 4.61133 11.4523C5.40758 11.4523 6.44616 11.66 6.96546 11.9369ZM11.5352 17.7184C11.8122 18.2031 11.6045 18.3762 10.3582 18.6878C9.5273 18.8955 8.59258 19.1378 8.281 19.2763C7.86557 19.4494 7.72709 19.2763 7.72709 18.5839C7.72709 17.9261 8.07328 17.4761 9.04263 16.8529C10.4274 15.9528 10.6005 16.022 11.5352 17.7184ZM51.3477 52.6841C53.9441 53.515 59.5179 53.8958 61.5951 53.4111L63.0145 53.0996L64.7801 56.7C65.784 58.6733 66.5803 60.4389 66.5803 60.612C66.5803 60.8197 65.4725 60.9582 63.9838 60.9582C59.7256 60.9582 56.1598 59.158 51.4169 54.5536C49.9629 53.1342 48.8205 51.9917 48.9243 51.9571C49.0282 51.9571 50.1014 52.3033 51.3477 52.6841ZM35.4919 58.431C36.8767 59.8504 37.1537 60.9928 37.1537 64.801V68.2283H35.5958H34.0379V62.8623C34.0379 59.9196 34.1764 57.4962 34.3149 57.4962C34.488 57.4962 35.0073 57.9117 35.4919 58.431ZM59.8295 62.9661L61.9066 63.5893L64.4339 68.713C65.8186 71.5518 66.9265 73.9059 66.8572 73.9405C66.788 74.0097 63.9146 71.6902 60.418 68.8514L54.048 63.6239L55.3982 63.0007C57.0945 62.2391 57.3369 62.2391 59.8295 62.9661ZM72.6387 72.625C75.2005 77.8871 77.2431 82.2492 77.1738 82.3184C77.1046 82.3877 76.0314 81.626 74.7505 80.6221C72.431 78.7872 72.3964 78.718 68.7959 71.5518C66.8226 67.5705 65.1955 64.1778 65.1955 64.0393C65.1955 63.797 66.788 63.1738 67.6881 63.07C67.8266 63.0354 70.0422 67.3282 72.6387 72.625Z" fill="#143FD9"/>
<path id="Vector_2" d="M14.028 7.71347C12.9895 8.75206 14.1319 10.3792 15.4128 9.68678C16.4514 9.13287 15.9667 7.29804 14.8243 7.29804C14.6166 7.29804 14.2704 7.47113 14.028 7.71347Z" fill="#143FD9"/>
</g>
</svg>
