<svg width="83" height="84" viewBox="0 0 83 84" fill="none" xmlns="http://www.w3.org/2000/svg">
<g id="Group">
<path id="Vector" d="M25.3049 1.39162C22.7409 2.65739 21.183 6.06526 20.7936 11.1933C20.5988 14.374 21.1506 17.2301 22.5137 19.6318L23.3251 21.0923L22.4813 22.9748C20.1769 28.1353 20.1769 34.6589 22.5462 40.2413C22.9681 41.2799 23.2277 42.2536 23.0655 42.3834C22.9356 42.4808 22.1242 43.1299 21.2804 43.8115C19.5927 45.1422 19.1383 46.0509 19.7225 46.765C20.3716 47.5439 20.9883 47.3492 22.7084 45.7913C24.2663 44.3957 24.9155 44.0387 24.9155 44.5904C24.9155 44.7202 25.6944 45.7913 26.6356 46.9597L28.3882 49.0369L27.3172 50.9842C25.3049 54.5868 25.1751 57.1833 26.9926 56.9237C27.4795 56.8588 27.8365 56.307 28.3233 54.8789C29.1347 52.5421 30.011 50.822 30.4005 50.822C30.5628 50.822 30.8549 51.0491 31.0821 51.3088C31.3093 51.6009 32.64 52.5421 34.0356 53.386L36.5671 54.9439L34.782 56.6965C31.7312 59.6824 30.0435 62.8631 28.2909 68.9648C28.1935 69.2894 27.1874 69.3543 23.1953 69.2569C18.9436 69.1595 18.0673 69.0297 16.9313 68.4455C15.0489 67.4394 13.3611 65.4271 12.7769 63.4473C12.0954 61.2403 12.1278 60.721 12.9392 58.1245C13.6857 55.6903 13.6533 54.6193 12.8094 54.457C11.8682 54.2623 11.3164 54.9763 10.6349 57.2158C9.30416 61.5973 10.0831 65.4596 12.9392 68.3806C15.5032 71.0095 16.7041 71.399 22.8058 71.5937L27.9988 71.756L28.0961 74.1253L28.1935 76.527L22.4163 76.3972L16.6392 76.2998L14.1076 75.099C9.72609 72.9893 6.51295 69.0622 5.44191 64.4859C4.69542 61.3052 5.1498 58.2219 7.51909 50.8544C8.6875 47.2193 9.66118 43.8439 9.66118 43.3896C9.66118 41.2799 7.29189 38.8133 5.27963 38.8133C3.7542 38.8133 2.52088 37.7098 2.52088 36.3466C2.52088 34.7887 3.4621 33.9449 5.21472 33.9449C9.85591 33.9449 14.0103 37.9694 14.4322 42.9352C14.562 44.3957 14.3997 45.4018 13.7506 47.4465C12.9068 50.1079 12.9068 50.9518 13.7506 51.2763C14.6918 51.6334 15.2111 50.9842 16.0225 48.3553C18.1646 41.5071 15.7629 35.3729 9.88837 32.6466C5.63664 30.6668 2.16386 31.1537 0.605978 33.9773C-1.14664 37.0606 1.12527 41.0852 4.5656 41.0852C5.79892 41.0852 7.0647 42.2536 7.0647 43.422C7.0647 43.9413 6.12348 47.3816 4.95507 51.0167C2.52088 58.6438 2.19632 60.8184 2.97526 64.4534C4.11122 69.8411 7.51909 74.4174 12.1927 76.9165C15.341 78.5393 17.9699 79.0586 23.4874 79.0586H28.0637L28.6479 80.3244C29.3619 81.9147 30.2382 82.7586 31.7961 83.4401C33.6136 84.1866 68.7958 84.1866 70.6134 83.4401C73.2098 82.3366 74.2484 80.6489 74.4756 77.1112C74.6704 74.4174 74.3133 73.2165 73.3397 73.2165C72.2686 73.2165 71.9765 73.9306 71.9765 76.5595C71.9765 79.0586 71.9441 79.156 70.873 80.227L69.7695 81.3305H51.2372H32.7049L31.6663 80.3893L30.5952 79.4481L30.6277 74.2876C30.6277 69.6464 30.7251 68.8999 31.504 66.5306C31.9908 65.1026 32.9645 62.9929 33.711 61.8245C35.4312 59.1631 38.7741 55.9175 39.4882 56.1772C39.7803 56.307 41.403 56.7614 43.0908 57.2158C45.7521 57.9623 46.8556 58.0596 51.2047 58.0596C55.6187 58.0596 56.6249 57.9623 59.3187 57.2482C61.0064 56.7614 62.6617 56.307 62.9862 56.1772C63.4082 55.9824 64.1222 56.5017 65.9073 58.3193C68.4388 60.9157 70.2564 63.9666 71.1651 67.2122C71.8467 69.549 72.3011 70.1332 73.2748 69.8087C73.9239 69.6139 73.9888 69.4192 73.8265 67.9911C73.4046 64.5833 71.0028 60.0394 67.8871 56.8588L65.9397 54.814L67.3353 54.0675C68.1143 53.6456 69.5099 52.7693 70.4186 52.0877C71.3274 51.3737 72.1388 50.822 72.1713 50.822C72.4634 50.822 73.7616 53.4509 74.216 54.9763C74.7353 56.6965 74.8326 56.8263 75.7414 56.8263C76.4879 56.8263 76.7151 56.664 76.78 56.0798C76.9423 55.0412 76.0011 52.2825 74.8976 50.4649L74.0212 49.0044L75.1897 47.7062C75.8388 47.0246 76.7151 45.9536 77.1695 45.3369L77.9809 44.2659L79.701 45.7913C81.4212 47.3492 82.1677 47.5115 82.8168 46.5053C83.3036 45.7588 82.8817 45.1422 80.8045 43.5194C79.701 42.6431 79.2142 42.0589 79.344 41.7343C79.4738 41.4747 79.9931 40.0141 80.5124 38.4887C82.2975 33.3931 82.0703 27.616 79.8958 22.7151C79.1168 20.9301 79.1168 20.9301 79.7335 20.0213C81.5835 17.4248 82.2001 12.4591 81.2265 7.85034C80.5773 4.73457 79.6037 2.91704 78.1107 1.91091C76.4554 0.807411 74.573 0.645126 71.2949 1.29424C67.3678 2.07319 64.1871 3.66353 61.9476 6.00035L60.0652 7.8828L57.5012 7.46087C54.1258 6.90912 48.089 6.90912 44.9083 7.49332L42.3443 7.94771L40.7539 6.16263C37.2812 2.39774 28.6803 -0.296089 25.3049 1.39162ZM31.8935 3.92317C34.5549 4.60475 36.9241 5.80562 38.3522 7.20122C39.6504 8.467 39.618 8.62928 37.9627 9.2784C36.989 9.66787 36.7619 9.60296 35.2364 8.79156C34.0356 8.14244 32.9645 7.85034 31.3742 7.72051C29.2645 7.59069 29.1347 7.62315 28.1935 8.53191C26.9926 9.76524 26.4733 11.6477 26.6032 14.5038C26.6681 16.581 26.6032 16.7757 25.7268 17.7169L24.7856 18.7231L24.1041 17.4897C23.5523 16.4512 23.4549 15.6722 23.4549 12.3617C23.4549 7.98016 24.0716 5.51351 25.4997 4.18282C26.4733 3.27406 28.94 3.17669 31.8935 3.92317ZM76.9423 4.08546C77.8835 4.83194 78.5975 6.81175 79.1493 10.1223C79.5712 12.6863 79.2466 15.3152 78.3054 17.5871L77.7861 18.8529L76.7151 17.6196C75.7414 16.4512 75.6765 16.224 75.8063 14.6336C76.0335 11.8424 75.644 10.0573 74.4756 8.7591C73.5019 7.59069 73.437 7.59069 71.3274 7.72051C69.7695 7.78542 68.666 8.07753 67.4651 8.72665C65.4529 9.76524 65.5827 9.73278 64.0248 9.08366L62.7915 8.59682L63.895 7.42841C66.8809 4.31264 74.7028 2.33283 76.9423 4.08546ZM52.503 11.6152C52.503 13.3678 52.6652 14.2441 53.1196 14.9906C54.353 17.0354 57.274 17.2626 58.7994 15.4126C59.5134 14.6012 59.6433 14.0819 59.6433 12.4915C59.6433 10.1547 59.7406 10.1547 63.6029 11.5503C69.9967 13.8871 75.6116 18.7231 77.6888 23.7537L78.1756 24.9546L77.1046 24.2406C75.4168 23.1046 72.2362 21.6441 71.0353 21.4169C70.1914 21.2546 69.8344 21.3195 69.5099 21.7739C68.8932 22.5853 69.445 23.4292 70.9055 23.916C72.8853 24.5327 74.93 25.6686 77.0721 27.2914C78.6949 28.4923 79.1493 29.0116 79.3116 29.9528C79.7659 32.3545 78.0133 40.2413 76.9423 40.6633C76.7151 40.7606 75.7414 40.501 74.7353 40.144C72.5283 39.3001 71.4572 39.2677 71.0353 40.0466C70.5485 40.9554 71.1002 41.5071 73.3072 42.2211C74.4432 42.6106 75.3844 43.0325 75.4493 43.2273C75.5142 43.3896 74.8976 44.3632 74.0862 45.4018L72.6256 47.2518L70.4835 45.629C68.0494 43.7466 66.9458 43.3571 66.2318 44.1036C65.4853 44.8176 65.8748 45.4018 67.8546 46.7325C70.5809 48.55 70.7107 48.7772 69.38 49.8807C67.6274 51.3412 62.9862 53.6132 59.7731 54.5868C57.1117 55.4307 56.4301 55.4956 51.367 55.4956C45.2004 55.5281 42.9934 55.1061 38.3847 52.964C35.8531 51.7956 32.0558 49.3614 32.0558 48.8746C32.0558 48.7448 33.0943 47.836 34.3601 46.9272C36.6645 45.2395 36.989 44.5904 35.8855 43.8764C35.1715 43.4545 33.6136 44.2334 31.5689 46.0185C30.79 46.7001 30.1084 47.2518 30.011 47.2518C29.7189 47.2518 26.7979 43.3246 26.9926 43.1299C27.09 43.0325 28.0637 42.6431 29.1672 42.2536C31.4391 41.4747 32.0882 40.7931 31.4066 39.9492C30.8549 39.3001 29.1023 39.4948 26.9277 40.4361L25.5321 41.0527L24.9155 39.6896C23.8444 37.2554 23.2927 34.5615 23.2927 31.673L23.3251 28.9142L25.0128 27.5835C25.954 26.837 27.5119 25.766 28.5181 25.2142C34.068 22.0985 43.1557 22.1634 48.3486 25.3441C50.653 26.7721 51.9188 26.8046 53.8337 25.5064C55.8135 24.1432 58.9617 23.2344 62.3371 23.0072C65.8423 22.7801 66.8809 22.066 65.6152 20.8327C65.031 20.216 64.1222 20.1836 60.7143 20.6704C57.5661 21.0923 54.9372 21.9687 52.8275 23.2669L51.2047 24.273L49.6469 23.2669C47.4723 21.8713 44.8109 21.0274 41.3381 20.6055C35.6584 19.9239 30.4654 21.0599 25.597 24.0783L24.2014 24.9546L25.4347 22.5529C26.8953 19.7292 30.5952 15.8669 33.4189 14.2117C35.7882 12.8161 40.0074 10.9986 41.5653 10.7389L42.7662 10.5117V12.4591C42.7662 13.8871 42.9285 14.6012 43.4153 15.1854C44.8758 17.0678 47.6021 17.1652 49.0626 15.4126C49.8091 14.5363 49.9065 14.1143 49.9065 12.0696C49.9065 10.7714 50.0039 9.60296 50.1337 9.50559C50.2311 9.37576 50.8153 9.2784 51.4319 9.2784H52.503V11.6152ZM47.5697 11.5828C47.5048 13.0757 47.31 13.6924 46.9206 13.952C45.882 14.6012 45.2004 13.8222 45.103 11.7775C45.0057 9.8626 45.103 9.73278 46.9206 9.63541C47.6346 9.60296 47.667 9.70033 47.5697 11.5828ZM56.6573 9.79769C57.274 9.95997 57.3714 10.2196 57.3714 11.5503C57.3714 13.6275 57.1442 14.1468 56.2029 14.1468C55.1968 14.1468 54.7749 13.2705 54.7749 11.2582C54.7749 9.50559 54.9696 9.34331 56.6573 9.79769ZM33.4189 10.6091C33.9706 10.9012 33.7435 11.1284 31.5365 12.5564C30.1733 13.4652 29.0049 14.1143 28.9075 14.017C28.6154 13.7573 29.4593 10.4468 29.8812 10.1872C30.3356 9.8626 32.5101 10.1223 33.4189 10.6091ZM72.9177 10.4793C73.2423 11.1284 73.7616 14.1468 73.5019 14.1468C73.437 14.1468 72.366 13.4977 71.1976 12.6863C69.9967 11.8749 68.8607 11.2258 68.6985 11.2258C68.0169 11.2258 68.7958 10.5766 69.802 10.2845C71.4897 9.79769 72.5607 9.8626 72.9177 10.4793Z" fill="#143FD9"/>
<path id="Vector_2" d="M39.4884 28.265C38.5147 28.7843 37.8007 30.2773 37.963 31.4133C38.0279 31.9975 38.2551 32.1597 39.034 32.1597C39.813 32.1597 40.0402 31.9975 40.1051 31.4133C40.2349 30.6343 41.1437 29.9527 41.663 30.3098C41.8252 30.4396 42.1498 30.9264 42.3445 31.4133C42.7665 32.3545 43.6752 32.5817 44.3244 31.9326C45.0384 31.2185 44.7463 30.0177 43.6103 28.8817C42.377 27.6484 40.9814 27.4536 39.4884 28.265Z" fill="#143FD9"/>
<path id="Vector_3" d="M59.059 28.5896C58.5073 29.0439 57.9555 29.8553 57.8581 30.4071C57.4038 32.3869 59.2862 33.0036 60.2923 31.186C60.5844 30.6343 61.0388 30.2124 61.266 30.2124C61.4932 30.2124 61.9476 30.6343 62.2397 31.186C63.2783 33.0685 65.0633 32.3544 64.4791 30.2773C63.7976 27.8431 60.9739 26.9668 59.059 28.5896Z" fill="#143FD9"/>
<path id="Vector_4" d="M45.59 32.2246C44.9734 32.8088 45.4277 34.3992 46.4988 35.4702C47.5698 36.5412 47.7321 36.6062 49.1926 36.4114C51.0426 36.1842 51.2698 36.1842 53.347 36.4114C54.8724 36.5737 55.0672 36.5412 56.0408 35.5676C56.8847 34.6913 57.0794 34.3018 56.9821 33.3281C56.8847 32.322 56.7549 32.1597 55.9759 32.0623C55.3593 31.9974 55.0347 32.1272 54.9049 32.5492C54.3207 34.3992 53.347 34.6263 52.5031 33.1334C52.211 32.5816 51.7242 32.1272 51.3996 32.0623C50.6856 31.9001 49.9067 32.5492 49.9067 33.2957C49.9067 33.8474 49.29 34.2693 48.576 34.2693C48.3812 34.2693 48.0242 33.75 47.7646 33.1334C47.44 32.2895 47.1155 31.9974 46.5637 31.9974C46.1418 31.9974 45.6874 32.0948 45.59 32.2246Z" fill="#143FD9"/>
</g>
</svg>
