<svg width="60" height="82" viewBox="0 0 60 82" fill="none" xmlns="http://www.w3.org/2000/svg">
<g id="Group">
<path id="Vector" d="M9.32931 1.16295C7.51597 1.73559 6.72064 2.21278 5.12999 3.67619C3.38027 5.29865 2.42587 7.04837 2.83944 7.81188C3.38027 8.76628 4.27103 8.41634 5.54356 6.69843C6.3707 5.61678 7.3569 4.72601 8.50217 4.15338C10.0292 3.35806 10.5064 3.26261 13.306 3.26261C16.9645 3.26261 16.8054 3.03992 16.8054 7.65282C16.8054 12.6793 15.342 17.7694 13.1787 20.1872C11.8425 21.6824 9.55201 23.2412 7.86591 23.7821C6.49795 24.2593 6.02075 24.2593 4.97092 23.9729C2.99851 23.3685 2.4895 22.2232 2.4895 18.3738C2.4895 16.6241 2.64857 14.6199 2.80763 13.92C3.15758 12.4566 2.99851 11.6613 2.33044 11.4068C0.898846 10.8659 0.358024 12.3293 0.071706 17.2604C-0.182799 21.3961 0.198958 22.8913 1.88505 24.7364C2.9667 25.8817 3.09395 26.1998 2.83944 26.8679C2.17137 28.6176 1.82143 33.4532 2.17137 36.2846C2.36225 37.7798 2.58494 39.0841 2.64857 39.1478C2.71219 39.2432 2.39406 40.0385 1.94868 40.9293C1.2806 42.2018 1.08972 43.1244 0.962472 45.3513C0.83522 47.9918 0.867033 48.2463 1.82143 50.1869C2.93488 52.4138 5.00274 54.5135 7.38872 55.7542C8.18404 56.1996 8.85212 56.645 8.85212 56.7722C8.85212 56.8995 8.34311 57.8221 7.73866 58.8401C6.40251 61.1306 4.84367 65.7435 4.55735 68.384C4.36647 70.1337 4.39829 70.3564 4.97092 70.6745C5.82987 71.1199 6.59339 70.8018 6.75245 69.9428C7.5796 65.1709 7.99316 63.6757 9.17025 61.3533C11.0472 57.5676 11.3654 57.2812 12.8606 57.7266C13.5605 57.9175 15.4692 58.0766 17.1553 58.1084L20.1776 58.1402L20.9093 59.8263C21.8319 61.8941 24.186 64.0892 26.2539 64.7891C28.1627 65.4254 30.8986 65.4254 32.8074 64.7891C34.8752 64.0892 37.2294 61.8941 38.152 59.8263L38.8837 58.1402L41.9059 58.1084C43.592 58.0766 45.5008 57.9175 46.2007 57.7266C47.3141 57.4085 47.4732 57.4403 48.014 58.0766C49.0321 59.2855 51.0999 63.8029 51.6089 65.9662C52.3088 68.7976 52.6269 75.2556 52.1497 76.9735C51.9589 77.7052 51.418 78.596 50.9408 78.9459C50.1455 79.614 49.8274 79.614 29.4988 79.614H8.88393L8.02498 78.8823C7.42053 78.3415 7.07059 77.6098 6.78427 76.2418C6.46614 74.5557 6.33888 74.3649 5.57537 74.2694C4.9073 74.174 4.6846 74.333 4.52554 75.0011C3.98472 77.1962 5.09817 79.7731 7.19784 81.2365L8.34311 82H29.5306H50.7181L51.8634 81.2365C52.4679 80.8229 53.3268 79.964 53.7404 79.3595C54.4403 78.3415 54.5039 77.8643 54.5993 74.0785C54.663 71.788 54.5357 68.8294 54.3448 67.525C53.8676 64.6301 52.4997 60.7489 51.1635 58.5856C50.6545 57.7266 50.2091 56.8995 50.2091 56.7404C50.2091 56.5813 50.6545 56.295 51.1635 56.0723C51.7043 55.8496 52.5633 55.277 53.1041 54.768C53.8995 54.0045 53.9949 53.7818 53.7086 53.2092C53.2632 52.3502 52.7224 52.4138 50.75 53.5273C45.7235 56.3587 38.2474 56.4541 32.8074 53.7818L30.8032 52.7956V47.0374V41.2793L31.8848 40.6748C32.4892 40.3567 33.2209 39.625 33.5391 39.0205C34.0163 38.1616 34.4617 37.8434 35.8932 37.4299C38.2156 36.73 43.1148 36.5073 45.978 36.9527C50.8136 37.6844 53.3268 39.0841 54.822 41.7883C55.7446 43.538 55.9037 44.8423 55.5537 49.2325C55.4583 50.4096 55.5219 50.505 56.2536 50.505C58.226 50.505 58.8941 45.2241 57.3353 41.5974C56.3809 39.3387 56.4127 39.7204 56.8581 36.38C57.208 33.6441 56.8899 28.6176 56.2218 26.8997C55.9673 26.1998 56.0946 25.9135 57.1762 24.7364C58.8623 22.8913 59.2441 21.3961 58.9895 17.2604C58.5442 9.49798 55.5855 3.708 50.909 1.57652C49.6683 1.00388 48.6821 0.876633 45.2781 0.781197C42.7967 0.717567 40.5698 0.813004 39.7744 1.00388C37.5793 1.60834 35.8614 3.16718 34.6207 5.71222L33.5073 8.00276H29.5306H25.554L24.4405 5.71222C23.2316 3.2308 21.5137 1.64014 19.4141 1.0357C17.7916 0.590317 10.8882 0.685753 9.32931 1.16295ZM51.0363 4.37608C54.3448 6.44392 56.2536 11.0568 56.4763 17.5785C56.6036 21.1416 56.5399 21.6506 55.9673 22.5413C54.5993 24.7364 51.7998 24.641 48.3322 22.3187C44.3555 19.6782 42.2559 14.5881 42.2559 7.65282C42.2559 2.94448 42.065 3.19899 46.0734 3.32624C49.1911 3.42168 49.6047 3.48531 51.0363 4.37608ZM20.623 4.40788C21.6092 5.26684 22.8499 7.30288 22.8499 8.13002C22.8499 8.38452 22.15 8.76628 21.1002 9.0526L19.3504 9.52979V8.22546C19.3504 7.52557 19.255 6.15761 19.1596 5.23502C18.9051 3.32624 19.1596 3.19899 20.623 4.40788ZM39.9017 5.23502C39.8063 6.15761 39.7108 7.52557 39.7108 8.22546V9.52979L37.9611 9.0526C36.9113 8.76628 36.2114 8.38452 36.2114 8.13002C36.2114 6.82568 38.7564 3.58074 39.7744 3.58074C39.9971 3.58074 40.0608 4.15338 39.9017 5.23502ZM33.6663 10.5796C36.4977 11.025 40.0289 12.1067 40.1562 12.5838C40.2198 12.8065 40.538 13.9836 40.8879 15.2243L41.4923 17.4831H39.1064C36.1159 17.4512 34.2708 18.2466 31.7894 20.6644C30.835 21.587 29.8169 22.3505 29.5306 22.3505C29.2443 22.3505 28.2263 21.587 27.2719 20.6644C24.7905 18.2466 22.9453 17.4512 19.9549 17.4831H17.5689L18.1734 15.2243C18.5233 13.9836 18.8414 12.8065 18.9051 12.6157C18.9369 12.393 19.7322 11.9794 20.623 11.6931C24.536 10.3887 29.6579 9.97517 33.6663 10.5796ZM22.3091 20.1554C23.0726 20.3462 24.3133 21.237 25.7767 22.605C27.9082 24.6092 28.099 24.7364 29.5306 24.7364C30.9622 24.7364 31.1531 24.6092 33.2846 22.605C36.2432 19.8054 38.3429 19.2328 41.6514 20.2508C43.5602 20.8553 46.8369 24.0684 47.505 26.009C47.9822 27.4724 48.1731 32.5943 47.7913 34.0577C47.6005 34.6939 47.4414 34.7576 46.4234 34.5349C43.6556 34.0259 37.0703 34.4076 34.907 35.2348C34.6207 35.3302 34.3344 35.0757 34.1117 34.4713C33.5073 32.9442 32.2984 32.3716 29.5306 32.3716C26.7629 32.3716 25.554 32.9442 24.9495 34.4713C24.7268 35.0757 24.4405 35.3302 24.1542 35.2348C21.9909 34.4076 15.4056 34.0259 12.6379 34.5349C11.2063 34.8212 11.079 34.5349 11.079 30.3992C11.079 26.3907 11.588 25.0546 14.0377 22.6368C16.71 19.9963 19.1277 19.2646 22.3091 20.1554ZM8.69305 30.7809V35.3938L6.72064 36.3164L4.74823 37.2708L4.52554 36.1255C4.23922 34.6621 4.55735 29.8902 5.03455 28.0132C5.41631 26.5816 5.44812 26.518 6.75245 26.3907C7.45234 26.3271 8.21586 26.2635 8.37492 26.2317C8.5658 26.1998 8.69305 27.8859 8.69305 30.7809ZM53.645 26.6452C53.6768 26.677 53.9313 27.6951 54.1858 28.904C54.663 31.1309 54.822 35.2984 54.4721 36.5709L54.2812 37.2708L52.3088 36.2846L50.3364 35.3302L50.3682 30.7809V26.2317L51.9589 26.3907C52.8496 26.4862 53.5813 26.6134 53.645 26.6452ZM31.7575 35.2348C32.2347 35.8392 31.9484 37.4935 31.2167 38.3206C30.8986 38.6706 30.2623 38.8933 29.467 38.8933C28.4172 38.8933 28.1627 38.7342 27.6218 37.8434C26.8901 36.6982 26.7947 35.712 27.3673 35.1393C27.94 34.5667 31.2803 34.6621 31.7575 35.2348ZM23.168 37.4299C24.4723 37.8434 25.0768 38.2252 25.554 38.9887C25.9039 39.5295 26.6674 40.293 27.2083 40.643L28.2263 41.2793L28.2581 47.0374V52.7956L26.2539 53.7818C23.1362 55.3406 20.4003 55.8496 16.4873 55.6588C11.3654 55.4043 7.96135 53.9727 5.28905 51.0141C3.57115 49.1053 2.93488 47.2283 3.25302 44.8741C3.82565 40.5157 6.78427 38.0025 12.5424 36.9845C14.9602 36.5391 21.1638 36.7936 23.168 37.4299ZM30.6441 55.3406C31.2803 55.6588 31.7575 56.1041 31.7575 56.4223C31.7575 57.0904 30.326 58.2993 29.5306 58.2993C28.7353 58.2993 27.3037 57.0904 27.3037 56.4223C27.3037 56.0087 28.5126 55.0861 29.4352 54.8316C29.467 54.7998 30.0078 55.0543 30.6441 55.3406ZM25.3949 58.0766C26.8901 61.2897 32.0121 61.3533 33.6663 58.1402C33.9208 57.5994 34.1435 57.154 34.1753 57.1222C34.1753 57.0904 34.6843 57.1858 35.3206 57.3767C36.4341 57.663 36.4659 57.7266 36.1796 58.6174C35.6387 60.1444 33.4754 62.0532 31.6621 62.594C29.6579 63.1985 29.4034 63.1985 27.3991 62.594C25.5858 62.0532 23.4225 60.1444 22.8817 58.6174C22.5954 57.7266 22.6272 57.663 23.5816 57.3767C24.1542 57.2176 24.6632 57.0585 24.7587 57.0585C24.8541 57.0585 25.1404 57.5039 25.3949 58.0766Z" fill="#143FD9"/>
<path id="Vector_2" d="M15.3103 27.886C13.6242 29.2858 13.6242 31.5763 15.2785 31.5763C15.6921 31.5763 16.042 31.2264 16.2647 30.6219C16.8692 28.9994 18.1099 29.0949 18.5234 30.8128C18.6825 31.449 18.9052 31.6081 19.6051 31.5127C20.3368 31.4172 20.464 31.2582 20.5595 30.272C20.6867 28.5859 19.6051 27.4406 17.7281 27.2179C16.5192 27.0906 16.1375 27.1861 15.3103 27.886Z" fill="#143FD9"/>
<path id="Vector_3" d="M40.0289 27.5677C38.9791 28.1722 38.3746 29.3174 38.5019 30.4945C38.5973 31.2898 38.7246 31.4171 39.5517 31.4171C40.2834 31.4171 40.5061 31.258 40.6652 30.6218C40.9515 29.4129 42.0968 29.3811 42.733 30.59C43.6874 32.4351 45.469 31.608 44.96 29.5719C44.4828 27.695 41.7468 26.5815 40.0289 27.5677Z" fill="#143FD9"/>
<path id="Vector_4" d="M14.2605 41.9155C14.0696 42.17 13.9741 42.6472 14.1014 43.0289C14.3559 43.8243 15.7239 43.8879 16.1374 43.0926C16.7737 41.8837 15.1512 40.8338 14.2605 41.9155Z" fill="#143FD9"/>
<path id="Vector_5" d="M8.40647 45.4468C8.12015 45.7013 7.89746 46.0512 7.89746 46.2103C7.89746 46.3693 8.12015 46.7193 8.40647 46.9738C8.66098 47.2601 9.01092 47.4828 9.16998 47.4828C9.32905 47.4828 9.67899 47.2601 9.9335 46.9738C10.2198 46.7193 10.4425 46.3693 10.4425 46.2103C10.4425 46.0512 10.2198 45.7013 9.9335 45.4468C9.67899 45.1604 9.32905 44.9377 9.16998 44.9377C9.01092 44.9377 8.66098 45.1604 8.40647 45.4468Z" fill="#143FD9"/>
<path id="Vector_6" d="M14.1011 49.3916C13.6875 50.696 15.4691 51.6186 16.1371 50.4415C16.5507 49.6461 15.9781 48.7554 15.0555 48.7554C14.5783 48.7554 14.2284 48.9781 14.1011 49.3916Z" fill="#143FD9"/>
<path id="Vector_7" d="M42.924 42.0109C42.5104 42.8062 43.083 43.6652 44.0056 43.6652C44.4828 43.6652 44.8328 43.4425 44.96 43.0289C45.3736 41.7246 43.5602 40.802 42.924 42.0109Z" fill="#143FD9"/>
<path id="Vector_8" d="M49.1274 45.4468C48.8411 45.7013 48.6184 46.0512 48.6184 46.2103C48.6184 46.3693 48.8411 46.7193 49.1274 46.9738C49.3819 47.2601 49.7319 47.4828 49.8909 47.4828C50.05 47.4828 50.3999 47.2601 50.6544 46.9738C50.9408 46.7193 51.1635 46.3693 51.1635 46.2103C51.1635 46.0512 50.9408 45.7013 50.6544 45.4468C50.3999 45.1604 50.05 44.9377 49.8909 44.9377C49.7319 44.9377 49.3819 45.1604 49.1274 45.4468Z" fill="#143FD9"/>
<path id="Vector_9" d="M42.924 49.3279C42.2877 50.5368 43.9102 51.5866 44.801 50.505C44.9919 50.2505 45.0873 49.7733 44.96 49.3915C44.7055 48.5962 43.3376 48.5326 42.924 49.3279Z" fill="#143FD9"/>
</g>
</svg>
