<svg width="94" height="80" viewBox="0 0 94 80" fill="none" xmlns="http://www.w3.org/2000/svg">
<g id="Group">
<path id="Vector" d="M2.35196 1.47566C0.825092 2.38451 -0.120111 4.49305 0.134367 6.3471C0.388844 8.20115 2.09748 10.0188 4.24236 10.6005C6.53266 11.2549 8.64119 12.7454 9.33192 14.1996C9.84087 15.2175 9.84087 15.6537 9.47733 16.8897C8.96838 18.6347 7.8414 19.7254 5.0058 21.2159C1.22499 23.2517 -0.192819 25.7965 0.0980129 30.1953C0.279783 32.7764 1.00686 33.7943 2.2429 33.1036C2.82456 32.8128 2.93362 32.3038 2.93362 29.6863C2.93362 26.9598 3.04268 26.5235 3.84247 25.542C4.35143 24.9603 5.80558 23.9061 7.04162 23.179C9.69546 21.7248 11.0406 20.3797 11.804 18.5257C13.5853 14.345 11.295 10.3097 6.09641 8.38292C3.1881 7.32865 2.93362 7.11053 2.93362 5.65637C2.93362 4.78387 3.1881 4.27492 3.76976 3.87502C4.5332 3.36607 4.93309 3.36607 7.62328 3.87502C20.0927 6.23803 28.9267 12.3819 31.7259 20.5978C32.3076 22.3792 32.3076 22.4155 31.5805 23.2153C30.8898 23.9424 30.4172 24.0515 28.1633 24.0515C25.0732 24.0515 25.2186 24.1969 24.0189 19.7981C23.0737 16.2354 21.6923 13.9451 19.5837 12.4182C17.7297 11.0731 15.912 11.0004 15.7302 12.3091C15.6575 12.8908 15.9847 13.3271 17.039 14.0178C19.2929 15.4356 20.2745 16.9261 21.4378 20.6706C22.0558 22.6337 22.492 24.2332 22.4557 24.2696C22.4193 24.306 21.4014 24.6695 20.2381 25.1057L18.0932 25.8692L16.6754 24.5604C14.6396 22.7427 12.931 21.9793 12.2039 22.5973C11.3677 23.288 11.5495 24.3423 12.6765 25.033C13.2218 25.3602 14.0943 26.0146 14.6032 26.5235L15.5848 27.396L13.8762 29.6136C11.913 32.2311 10.677 34.9213 10.059 37.9023C9.84087 39.0657 9.51369 40.1199 9.40462 40.2653C9.04108 40.6289 6.8962 39.2111 5.58746 37.7206C4.96944 36.9935 4.27872 36.4118 4.09695 36.4118C3.62435 36.4118 2.57008 37.4297 2.57008 37.9023C2.57008 38.6294 5.98735 41.8649 7.55057 42.6283C9.11379 43.3918 9.1865 43.4645 8.93202 44.7369C8.35036 47.8633 6.06006 50.5899 4.02424 50.5899C2.75185 50.5899 1.15228 51.6078 0.53426 52.8438C-1.21073 56.2247 2.42467 62.9138 6.64172 64.0772C8.89567 64.6952 12.8582 64.2953 15.8393 63.132C20.8925 61.2052 21.8377 61.1689 22.7829 63.0229C23.6554 64.6952 23.1464 65.7494 20.02 68.7668C17.766 70.9117 17.1117 71.7842 16.9299 72.8385C16.4209 75.6377 17.657 78.2552 20.0563 79.4912C23.619 81.3453 30.2354 77.928 33.4709 72.5476C34.707 70.5118 35.943 66.6219 35.9794 64.6952C36.0157 63.8227 35.2159 62.5867 34.6343 62.5867C33.7981 62.623 33.3255 63.4955 33.0347 65.5677C32.4167 70.33 29.3993 74.5108 25.1822 76.5102C23.0374 77.5281 22.8192 77.5645 21.5468 77.0555C20.5289 76.692 20.0927 76.2557 19.8019 75.3105C19.5837 74.6562 19.4747 73.7837 19.5837 73.4201C19.6564 73.0566 20.8925 71.6751 22.2739 70.33C23.6554 68.9486 25.0368 67.4217 25.3277 66.8764C26.5273 64.6225 25.5821 61.2779 23.3282 59.7874C21.6196 58.6241 19.5837 58.6968 16.2392 60.0419C9.44098 62.7684 5.69652 62.1504 3.76976 58.0061C3.26081 56.8427 2.93362 55.5703 3.00633 54.8796C3.11539 53.6436 3.40622 53.4618 5.951 52.9529C7.44151 52.662 9.6591 50.4444 10.568 48.3359C11.0042 47.2816 11.7676 44.2279 12.2039 41.5377C13.9852 31.3223 17.766 27.287 26.0911 26.7053C27.7634 26.5962 29.1085 26.5962 29.1085 26.7053C29.1085 26.8507 28.854 27.5051 28.5268 28.1958C28.0178 29.2137 27.6543 29.4682 26.491 29.65C23.1101 30.1953 20.2745 32.6674 18.9657 36.2664C18.4204 37.6479 18.0569 39.7927 17.8751 42.5556C17.5116 47.5361 17.2571 48.2268 15.2213 50.4444C13.9852 51.7895 13.7671 52.2258 14.0943 52.6984C14.6759 53.6799 15.5848 53.6436 16.9662 52.5893C19.0384 51.0261 20.0563 48.5177 20.4199 44.0825C21.1106 36.3027 22.6011 33.249 26.1638 32.5583C27.1454 32.3402 27.2908 32.4129 27.2908 33.0672C27.2908 33.5035 27.109 33.9397 26.9272 34.0488C26.7091 34.1942 26.0911 35.1394 25.5458 36.1573C24.5642 38.0114 24.5642 38.1568 24.5642 44.8096V51.5351L23.4736 53.1346C22.8919 53.9708 22.2376 54.916 22.0558 55.1705C21.6196 55.7521 22.4193 56.77 23.2918 56.77C24.237 56.77 26.3456 54.1525 26.9272 52.3348C27.1817 51.426 27.3271 49.5356 27.2544 47.8633C27.0363 42.592 27.1454 39.1384 27.5452 38.4113C27.9088 37.7933 27.9815 37.8296 28.4904 39.0657C28.8176 39.7927 29.5447 41.1015 30.1264 41.974C31.1443 43.4281 31.217 43.719 31.1806 47.1362C31.1806 50.5899 32.0895 56.9518 32.8166 58.2969C33.1801 59.0603 34.8524 59.1694 35.1432 58.4787C35.2523 58.1878 34.9978 56.1157 34.5616 53.8617C34.1617 51.6078 33.8345 48.9539 33.8345 47.9724V46.191L35.943 47.6088C37.07 48.4086 38.8513 49.4629 39.8329 49.9355C41.7596 50.917 47.031 52.7711 47.8671 52.7711C48.5942 52.7711 48.7396 53.28 48.3761 54.6251C47.8671 56.2974 48.5215 58.3332 49.8666 59.4602C51.3934 60.7326 54.6653 60.769 57.2828 59.5329C59.2095 58.6241 61.5725 56.4792 62.4087 54.916C62.8086 54.1162 63.2085 53.8981 64.9898 53.6799C74.4782 52.5166 83.494 47.936 87.4202 42.2648C88.0019 41.465 88.5835 40.8834 88.7653 40.9561C89.3106 41.3196 91.4918 40.1563 92.2916 39.1384C93.2732 37.9023 93.3095 36.23 92.437 34.7759C91.7827 33.7216 91.7827 33.6489 92.4734 32.3038C92.9824 31.3223 93.1278 30.5225 92.9824 29.5773C92.6915 27.905 90.9829 26.2327 89.4924 26.2327C88.6562 26.2327 88.1473 25.8328 86.9112 24.2332C85.239 22.052 82.9487 20.0525 82.1125 20.0525C81.4945 20.0525 80.7311 20.7796 80.7311 21.3976C80.7311 21.6521 81.3854 22.4519 82.2216 23.2153C83.0577 23.9788 84.2211 25.2148 84.8027 25.9782L85.8933 27.3233L84.73 28.6684C81.858 31.9403 81.8944 35.4666 84.8027 38.484L85.8933 39.611L85.1299 40.7016C82.876 43.9007 78.1499 47.1362 73.2058 48.9176L70.552 49.8264L69.6795 48.2996C66.9893 43.7553 65.826 39.2838 65.826 33.7216C65.826 31.504 66.0804 28.5957 66.3349 27.287C66.9529 24.3423 68.7706 19.9071 69.934 18.453L70.8064 17.3987L73.7148 18.4166C77.0593 19.5436 77.9318 19.4709 77.7501 17.9804C77.641 17.1079 77.3138 16.8534 75.0962 15.9809C73.7148 15.4356 71.3881 14.7085 69.9703 14.3813L67.3528 13.7633L67.1347 11.9456C66.5894 7.21959 62.2269 2.60264 58.337 2.60264C56.0831 2.60264 53.4656 4.92929 53.4656 6.92876C53.4656 8.31021 52.4477 8.20115 48.8487 6.38345C45.8313 4.85658 44.9951 4.6021 42.7412 4.49304C36.9973 4.20221 32.9983 7.7649 34.6706 11.7638C35.3977 13.4725 36.3793 14.0905 39.8329 15.0357L42.6321 15.7991L39.7602 17.2896C38.197 18.1258 36.4156 19.1437 35.8339 19.5799L34.707 20.3434L33.3982 17.5805C31.6169 13.8724 29.3266 11.0368 26.1274 8.6374C21.6196 5.29283 16.2392 2.96618 9.73181 1.54837C5.40569 0.603172 3.80612 0.603172 2.35196 1.47566ZM60.3002 6.01991C62.3723 7.11053 64.1173 9.69166 64.4445 12.1274L64.5536 13.1453L58.1916 13.2543C54.0109 13.3634 50.9208 13.5815 49.1758 13.9814C46.8128 14.5267 46.4129 14.5267 45.4677 14.0541C44.9224 13.7633 42.9957 13.1089 41.2507 12.6C37.4699 11.5094 37.0336 11.1822 37.179 9.76437C37.3245 8.20115 39.4693 7.14689 42.3777 7.18324C44.2317 7.18324 45.0315 7.43771 47.8307 8.89188C50.1574 10.0916 51.5389 10.6005 52.5931 10.6005C54.2654 10.6005 55.5014 9.69166 55.865 8.12844C56.4466 5.58366 58.0462 4.85658 60.3002 6.01991ZM63.9356 16.09C65.8623 16.3081 67.4982 16.5262 67.5709 16.5626C67.6073 16.6353 67.0983 17.7986 66.4076 19.18C61.9361 28.0868 61.8634 38.593 66.1531 47.4998C66.9529 49.0993 67.5346 50.4444 67.4982 50.4808C67.4255 50.5535 66.0077 50.7716 64.3354 50.9897C60.3729 51.5351 53.0657 51.1715 49.0304 50.2627C40.7417 48.3723 33.9799 43.9371 31.3988 38.7021C30.5263 36.8844 30.3809 36.1573 30.3809 33.5035C30.4172 29.5046 31.2533 27.6869 34.707 24.1969C36.8155 22.0884 37.9788 21.2886 41.1053 19.7617C48.1943 16.3081 55.5014 15.1448 63.9356 16.09ZM89.7469 29.2137C90.3285 29.7954 90.2922 30.9951 89.6378 31.8312C88.9107 32.7764 88.9471 34.5941 89.6741 35.612C89.965 36.0483 90.1831 36.7754 90.1104 37.248C89.9286 38.5931 88.7653 38.4113 87.0567 36.739C85.6389 35.3576 85.4571 34.994 85.4571 33.5762C85.4571 32.1584 85.6389 31.7585 87.0567 30.3771C88.7289 28.6684 89.0561 28.523 89.7469 29.2137ZM59.2459 54.4434C59.5367 54.7342 58.0099 56.1157 56.6648 56.8064C54.5926 57.8606 52.4841 58.0788 51.6479 57.3153C50.7391 56.4792 50.7391 55.3886 51.6479 54.407C52.3023 53.6799 52.5568 53.6799 55.7196 53.9708C57.5736 54.1525 59.1732 54.3343 59.2459 54.4434Z" fill="#143FD9"/>
<path id="Vector_2" d="M74.1874 24.8149C73.2785 25.7601 73.0967 26.1963 73.1695 27.287C73.2785 28.4866 73.3876 28.5957 74.3691 28.5957C75.1689 28.5957 75.4961 28.4139 75.5688 27.8686C75.9324 25.9055 77.2774 25.7237 78.0409 27.5051C78.4408 28.4866 78.768 28.7775 79.4587 28.7775C81.3491 28.7775 80.9128 25.2511 78.877 24.2332C77.132 23.3244 75.4961 23.5425 74.1874 24.8149Z" fill="#143FD9"/>
</g>
</svg>
