<svg width="47" height="89" viewBox="0 0 47 89" fill="none" xmlns="http://www.w3.org/2000/svg">
<g id="Group">
<path id="Vector" d="M4.49172 1.9964C1.6818 5.84703 0.259488 10.0793 0.571702 13.6871C0.849226 17.2949 1.99401 19.6191 4.76924 22.4291C6.12217 23.782 7.54448 25.0655 7.92607 25.2737C8.61988 25.6206 8.61988 25.6553 7.822 26.9735C6.365 29.4365 5.25491 32.1077 4.52641 35.0217C3.8326 37.8663 3.8326 37.9357 4.45703 38.3867C5.74058 39.3233 6.22624 38.8029 7.02412 35.6808C7.75262 32.9056 9.93812 28.1183 10.5279 28.1183C11.0482 28.1183 14.1357 34.8135 15.1764 38.1091C16.3558 41.8557 17.119 46.643 17.119 50.1467C17.119 55.385 15.3845 63.8147 14.0663 64.7861C12.748 65.8268 12.1583 65.3411 9.93812 61.2823C6.7466 55.4197 6.33031 53.928 6.05279 47.5449L5.84465 42.1679H4.80394H3.76322L3.65915 46.7471C3.52039 53.3382 4.00606 55.2115 7.37103 61.8027C9.97281 66.8675 10.1116 67.3185 9.79936 68.3939C9.48714 69.3305 9.59121 70.51 10.1463 73.6321C10.7707 77.1359 11.1523 78.2113 12.644 80.9865C15.7314 86.8145 18.8189 89 23.8837 89C26.2079 89 26.9364 88.8265 28.3934 88.0634C30.9952 86.7104 32.8338 84.6637 34.8112 80.9171C36.3722 78.0378 36.7191 77.0318 37.3089 73.5974C37.8292 70.4753 37.8986 69.2958 37.6211 68.3592C37.2048 67.041 37.3436 66.6941 40.8473 60.1376C43.2756 55.5584 43.6572 53.477 43.6572 44.7697C43.6225 36.0971 43.4144 34.8482 40.6738 29.1937C39.7025 27.251 38.974 25.5859 39.0434 25.5512C40.9514 24.4064 43.345 22.1515 44.4898 20.4517C45.9815 18.2315 46.259 17.0174 45.4264 16.3582C44.6979 15.7685 43.8654 16.2542 43.1022 17.7805C42.2349 19.5151 40.2922 21.6659 38.7659 22.6025C38.0721 23.0188 37.517 23.2963 37.4476 23.2269C37.1701 22.88 36.1988 20.0701 36.1988 19.6191C36.1988 19.3763 36.8232 18.7866 37.5864 18.3703C40.8126 16.5317 42.6859 10.7731 40.0494 10.7731C39.2168 10.7731 38.6271 11.4669 38.6271 12.4035C38.6271 13.6177 37.7252 15.1094 36.511 16.0113C35.609 16.6358 35.3662 16.6704 35.1234 16.2889C34.9499 16.0113 34.8112 15.6991 34.8112 15.5604C34.8112 15.4216 34.3255 14.7278 33.7011 14.034L32.591 12.7851L33.4582 12.0219C33.9786 11.6403 35.4703 10.3915 36.8579 9.28139C38.2108 8.1713 39.7719 6.6796 40.2922 5.91641C40.8126 5.15323 41.333 4.56348 41.4717 4.5288C41.9227 4.5288 43.8307 8.83041 44.1429 10.5649C44.5245 12.577 45.2877 13.3749 46.3631 12.8198C46.9528 12.4729 46.9875 12.2301 46.814 10.7037C46.2937 6.78368 42.7553 0.539398 41.0554 0.539398C40.3616 0.539398 40.0494 0.886299 39.3903 2.27392C38.3843 4.35535 36.9273 5.9511 33.1807 8.93448L30.3361 11.1894H23.7102H17.0843L14.2397 8.93448C10.4932 5.91641 9.03617 4.35535 8.03015 2.27392C6.92005 -0.11972 6.08748 -0.189102 4.49172 1.9964ZM7.16288 5.9511C7.71793 6.71429 9.62591 8.5182 11.4298 9.9752C13.2337 11.3975 14.6907 12.681 14.6907 12.8545C14.6907 12.9933 14.3785 13.3749 13.9622 13.7565C13.5459 14.1034 12.9562 14.9359 12.644 15.5604L12.0542 16.7051L10.8748 15.9073C10.0075 15.3175 9.48714 14.589 9.10555 13.4442C8.44643 11.3975 8.03015 10.9812 7.0935 11.2934C6.26093 11.5363 6.08748 13.132 6.7466 14.8319C7.19758 16.0807 9.31369 18.2315 10.5279 18.7519L11.4992 19.1682L10.8054 21.2149C10.4238 22.325 10.0075 23.2616 9.86874 23.2616C9.31369 23.2616 6.46908 20.868 5.53243 19.6538C3.65915 17.1908 3.13879 15.491 3.31225 12.1954C3.41632 9.73236 3.65915 8.79572 4.59579 6.85306C5.18553 5.56951 5.80996 4.5288 5.94872 4.5288C6.08748 4.5288 6.64253 5.18791 7.16288 5.9511ZM17.5353 15.5257C15.6273 19.2029 15.2111 23.6085 16.4252 26.8694C17.3966 29.4018 17.9169 29.8181 19.2005 29.0549C19.7208 28.7427 20.2412 28.4652 20.3106 28.4652C20.4146 28.4652 20.8309 29.6447 21.2819 31.067C22.0798 33.5994 22.8083 34.3973 23.7102 33.8422C23.9184 33.7034 24.6469 32.4893 25.306 31.1364C25.9998 29.7487 26.6242 28.5693 26.6936 28.4999C26.763 28.3958 27.1793 28.6733 27.6302 29.0896C29.1913 30.5813 30.128 29.8528 31.134 26.4185C32.14 23.0188 31.689 19.2722 29.8504 15.5604C29.3995 14.6584 29.1219 13.8952 29.226 13.8952C29.3301 13.8952 29.9198 14.2074 30.5442 14.589C31.8625 15.3869 32.591 16.6704 33.4235 19.7579C33.7704 21.0068 34.3602 22.7413 34.7071 23.5738L35.3662 25.1002L33.2501 29.2978C30.8911 33.981 29.1566 38.9417 28.4281 43.3821C27.9078 46.5042 28.0812 47.5449 29.226 47.5449C30.1973 47.5449 30.5095 46.9205 30.9952 43.9024C31.2034 42.3761 31.7931 39.8783 32.2788 38.352C33.3542 34.8829 36.5457 28.0489 37.0313 28.2224C37.6211 28.4305 39.6678 32.8709 40.431 35.6808C41.0554 37.9357 41.1595 39.3927 41.1942 44.9431C41.2289 52.575 40.882 54.3789 38.5924 58.8193C37.7945 60.3457 36.7191 62.3924 36.2335 63.3985C35.2968 65.2717 34.4989 65.688 33.3195 64.7861C32.695 64.3004 31.1687 58.8193 30.8218 55.6972C30.3708 51.465 30.2667 51.0487 29.5729 50.8405C28.5669 50.4936 27.8731 51.2568 27.8731 52.7138C27.8731 53.9974 28.6363 59.0622 29.0872 60.8661L29.3648 61.8374L27.8731 60.8661C26.5548 59.9641 26.0345 59.86 23.7102 59.86C21.386 59.86 20.8656 59.9641 19.5474 60.8661C18.4026 61.6292 18.1251 61.6986 18.2985 61.2477C18.9229 59.5478 19.5474 54.2402 19.5474 50.2855C19.5474 42.2026 17.3272 34.1891 13.0256 26.9041L12.0195 25.2043L12.6787 23.6432C13.0256 22.776 13.65 21.0068 13.9969 19.6885C14.3785 18.3703 14.9682 16.8439 15.3151 16.2542C15.9396 15.2828 17.8128 13.7911 18.0904 14.034C18.1598 14.1034 17.9169 14.7625 17.5353 15.5257ZM27.318 16.3929C28.5322 18.8213 29.3648 22.1168 29.0872 23.5045C29.0179 23.8514 28.8444 24.5799 28.7403 25.1349L28.5322 26.1409L27.6996 25.3431C26.5201 24.233 25.757 24.5799 24.5428 26.8694C23.398 29.0202 23.3286 29.0202 22.6695 26.9041C21.9063 24.5105 20.935 23.9901 19.7208 25.3431C18.8883 26.2797 18.6107 26.0022 18.3679 23.8861C18.0904 21.5965 18.8189 18.6825 20.3452 15.9073L21.4553 13.8952H23.7449H26.0345L27.318 16.3929ZM25.0631 62.4618C25.7223 62.6353 27.214 63.7107 28.3934 64.8902C30.6136 66.9716 31.7931 67.6654 33.2154 67.6654C33.6664 67.6654 34.2908 67.9776 34.6377 68.3592C35.2621 69.0183 35.2621 69.2958 34.8458 72.1058C34.048 77.6909 33.2501 79.2867 30.4749 80.5355C28.4281 81.4722 18.9923 81.4722 16.9456 80.5355C14.1704 79.2867 13.3725 77.6909 12.5746 72.1058C12.1583 69.2958 12.1583 69.0183 12.7827 68.3592C13.1296 67.9776 13.7541 67.6654 14.205 67.6654C15.662 67.6654 16.8068 66.9716 19.027 64.8555C21.6982 62.3231 22.8777 61.8374 25.0631 62.4618ZM29.6076 84.1433C29.3995 84.3862 28.3934 85.0106 27.4221 85.531C24.855 86.8145 22.0798 86.7451 19.6514 85.3575C18.6801 84.8025 17.7782 84.178 17.6394 83.9699C17.5006 83.7271 19.5127 83.623 23.7449 83.623C29.1913 83.623 29.9892 83.6924 29.6076 84.1433Z" fill="#143FD9"/>
<path id="Vector_2" d="M36.2683 38.5948C35.9908 38.8724 35.8521 40.1906 35.8521 42.2373C35.8521 45.0473 35.9214 45.4982 36.5112 45.8104C37.3784 46.2614 37.4478 46.2614 38.0722 45.6023C38.7314 44.9779 38.8701 39.9478 38.2804 38.8377C37.8641 38.1092 36.8928 37.9704 36.2683 38.5948Z" fill="#143FD9"/>
<path id="Vector_3" d="M15.8354 70.6834C14.8988 71.0303 15.4191 72.4179 17.0496 74.0137C18.7494 75.6788 19.4432 75.9564 20.1717 75.2279C20.8655 74.5341 20.6574 73.9443 18.9922 72.1751C17.4659 70.5447 16.8414 70.2671 15.8354 70.6834Z" fill="#143FD9"/>
<path id="Vector_4" d="M28.2546 72.3486C26.6935 73.979 26.5201 74.3606 26.8323 74.9503C27.422 76.0604 28.2893 75.7829 30.2667 73.7709C31.8971 72.1404 32.0706 71.8282 31.7237 71.1691C31.0992 69.9896 30.1973 70.3018 28.2546 72.3486Z" fill="#143FD9"/>
<path id="Vector_5" d="M9.13985 38.8377C8.75826 39.5662 8.65419 43.7637 9.00109 45.0126C9.24393 45.9492 10.0071 46.2614 10.9091 45.8104C11.4988 45.4982 11.5682 45.0473 11.5682 42.2373C11.5682 40.1906 11.4294 38.8724 11.1519 38.5948C10.5275 37.9704 9.55614 38.1092 9.13985 38.8377Z" fill="#143FD9"/>
</g>
</svg>
