<svg width="59" height="76" viewBox="0 0 59 76" fill="none" xmlns="http://www.w3.org/2000/svg">
<path d="M48 9.02681C51.0091 8.77275 53.8393 10.6493 55.2484 13.3202C57.6114 17.7991 57.6114 19.0113 57.6114 25.5565C57.6114 29.8608 57.6114 37.8652 57.6114 38.8752C54.6438 39.1338 51.7089 37.5798 50.0596 35.0992C48.3159 32.4768 48.2476 30.9787 48 25.5565C48 21.4258 48 10.0368 48 9.02681Z" fill="#0125A6"/>
<path d="M5.37485 35.7756C2.6865 33.0873 2.30889 32.0255 0.542376 27.7662C-0.199338 24.0373 0.0352017 23.4944 0.0352007 3.81316e-06C8.04467 7.47551 8.04467 7.47549 10.1805 9.1132C13.3843 9.1132 15.456 9.1132 19.2579 9.1132C23.0598 9.1132 25.1315 9.1132 28.3353 9.1132C31.0051 6.94153 31.0052 6.94154 38.4807 2.13265e-06C38.4807 18.6888 38.6616 24.0373 37.9199 27.7662C36.1534 32.0255 35.8293 33.0873 33.141 35.7756L19.2579 25.0963L5.37485 35.7756Z" fill="#0125A6"/>
<circle cx="11.2132" cy="20.8246" r="2.66982" fill="#E9F0FF"/>
<circle cx="27.2322" cy="20.8246" r="2.66982" fill="#E9F0FF"/>
<path d="M19.2227 29.902L21.0724 28.3001H17.373L19.2227 29.902Z" fill="#0125A6"/>
<path d="M0 76V56C11.0457 56 19.5 64.0589 19.5 74V76H0Z" fill="#0125A6"/>
<path d="M39 56V36C50.0457 36 58.5 44.0589 58.5 54V56H39Z" fill="#0125A6"/>
<path d="M39 76V56C27.9543 56 19.5 64.0589 19.5 74V76H39Z" fill="#0125A6"/>
<path d="M58.5 76V56C47.4543 56 39 64.0589 39 74V76H58.5Z" fill="#0125A6"/>
</svg>
