<svg width="81" height="81" viewBox="0 0 81 81" fill="none" xmlns="http://www.w3.org/2000/svg">
<g id="Group">
<path id="Vector" d="M36.9891 1.11021C32.5128 1.73628 25.9077 4.55359 22.0887 7.4335L19.9914 9.02997L18.1758 8.18478C16.6106 7.4335 15.922 7.30829 13.6681 7.30829C11.3517 7.30829 10.7569 7.4335 9.12914 8.21608C5.49795 10.0004 2.49283 14.1324 1.272 19.0471C0.645928 21.52 0.833748 24.6817 1.74155 26.6851C2.52413 28.5007 4.55885 30.6606 6.31184 31.5997L7.72049 32.351V35.8883V39.4255L6.40575 40.9907C4.40233 43.2759 2.80586 46.1245 1.86676 48.9418C1.17809 51.0391 1.05287 52.0408 1.02157 55.2024C1.02157 57.8632 1.14678 59.5223 1.52242 60.8997C2.2424 63.5291 3.36932 65.8143 3.99539 65.9395C4.71537 66.0647 5.62316 65.0943 5.34143 64.4682C3.87018 61.0562 3.55714 59.7414 3.40062 56.4546C3.24411 52.4164 3.68236 50.1626 5.34143 46.7505C6.62487 44.1524 8.62829 41.6794 8.65959 42.6811C8.65959 43.0254 9.25436 44.528 10.0056 46.0306L11.3204 48.7226L10.5378 50.413C9.84912 51.853 9.75521 52.5104 9.75521 55.5468C9.75521 58.8962 9.78651 59.0528 10.9134 61.3379C11.696 62.9344 12.6664 64.2491 13.8246 65.3447L15.5463 66.9725L14.889 68.256C14.5446 68.9446 14.169 70.2907 14.0751 71.1985C13.9812 72.1376 13.762 72.8889 13.6055 72.8889C13.0421 72.8889 10.6943 71.0733 8.97262 69.3203C8.03352 68.3499 7.03182 67.5673 6.75009 67.5673C5.99881 67.5673 5.43534 68.3812 5.68577 69.1011C5.99881 70.0715 9.91173 73.5462 12.103 74.7671C13.1673 75.3618 14.2942 76.1131 14.5759 76.4261C14.8577 76.7705 15.7342 77.6783 16.5167 78.5235C19.0523 81.1529 18.1445 81.059 41.5594 80.9651C62.0005 80.8712 62.0318 80.8712 63.3153 80.1825C67.7604 77.8035 69.2003 72.9202 66.9465 68.0368C66.0074 66.0647 65.9761 65.9082 66.4456 65.0317C67.7917 62.4335 67.6351 58.9589 66.07 55.8285L65.2874 54.232L67.9169 51.5713C72.2367 47.1888 74.1462 42.4307 74.2089 35.7631L74.2402 32.2571L75.5549 31.5684C77.2766 30.6606 79.28 28.4694 80.0626 26.6851C82.6921 20.8 78.7478 11.0334 72.6124 8.15347C71.0785 7.4335 70.3898 7.30829 68.136 7.30829C65.9135 7.30829 65.1935 7.4335 63.6596 8.15347L61.844 8.99866L59.6528 7.33959C57.2424 5.52399 53.3921 3.45797 50.4496 2.45626C46.6932 1.17282 40.8395 0.578056 36.9891 1.11021ZM49.354 4.58489C60.2475 8.15347 68.856 18.1393 71.3289 30.0032C72.0802 33.5092 71.955 39.0499 71.1098 41.8985C69.3568 47.5644 65.6943 51.6652 59.8406 54.4512C49.7296 59.2719 32.8884 59.4284 22.6209 54.7642C16.4854 51.9782 12.2595 47.2201 10.663 41.2724C9.78651 38.0482 9.91173 32.2571 10.976 28.2815C12.4786 22.4591 15.4211 17.2941 19.741 12.8177C24.0609 8.3726 28.6624 5.5866 34.0779 4.14664C36.6761 3.45797 37.49 3.39536 41.6847 3.48927C45.9106 3.61449 46.6619 3.7084 49.354 4.58489ZM16.8924 10.1882C17.5184 10.4386 18.0506 10.7204 18.0506 10.783C18.0506 10.8456 17.2054 11.9099 16.2037 13.0994L14.3568 15.3219L11.4143 15.3846C8.37786 15.4785 6.62487 16.0419 4.9971 17.5758C3.96409 18.5149 3.90148 18.1393 4.77797 16.2297C7.34485 10.689 12.1343 8.30999 16.8924 10.1882ZM71.7985 10.4699C73.7706 11.409 75.7427 13.5377 76.9322 16.0419C77.9026 18.1079 77.8713 18.5462 76.807 17.5758C75.148 16.0419 73.4576 15.4785 70.4837 15.4472C67.7291 15.4472 67.6351 15.4159 66.8839 14.5081C66.4769 13.9759 65.5691 12.9429 64.9118 12.1916C63.7535 10.9082 63.6909 10.8143 64.2544 10.5012C65.4126 9.84386 67.6665 9.37431 68.9186 9.53082C69.6073 9.62473 70.8907 10.063 71.7985 10.4699ZM12.729 17.6071C12.729 17.701 12.103 18.9844 11.3517 20.5183C10.0056 23.2104 8.34656 27.9059 8.34656 29.0328C8.34656 30.0032 8.00222 30.0032 6.59357 29.0328C5.0284 27.9685 3.77627 26.0277 3.49453 24.2121C3.30671 23.0852 3.40062 22.7722 4.33973 21.5513C5.49795 20.0175 7.87701 18.2645 9.41087 17.8262C10.4126 17.5132 12.729 17.388 12.729 17.6071ZM73.708 18.3897C75.3671 19.2349 77.0262 20.6748 77.8713 22.0522C78.3722 22.8974 78.4974 23.3982 78.3096 24.306C77.9966 26.059 76.7444 27.9998 75.2419 29.0328L73.8958 29.9406L73.0506 26.9668C72.5811 25.3077 71.5481 22.5843 70.7342 20.9566C69.9203 19.2975 69.2003 17.8262 69.1377 17.6697C68.8873 17.1688 72.3933 17.7323 73.708 18.3897ZM14.889 52.573L16.6733 54.1381L15.7342 56.0476C14.9829 57.5502 14.7324 58.5206 14.6385 60.2736C14.5133 62.997 14.2003 62.9344 12.8855 60.0232C11.7899 57.5502 11.5708 55.0772 12.2282 52.7608C12.5099 51.7904 12.8229 50.9765 12.9169 50.9765C13.0108 50.9765 13.8873 51.6965 14.889 52.573ZM25.4069 58.3328C29.8207 59.7727 34.5162 60.4301 40.589 60.4301C48.6027 60.4614 54.4251 59.4284 59.778 57.0806C63.5031 55.4216 63.3153 55.4216 64.0979 56.9554C65.0996 58.9589 65.2248 61.6822 64.4109 63.7483C63.5344 65.9082 63.5657 66.503 64.6926 68.882C66.07 71.7932 65.8509 74.8297 64.1292 76.7392C63.284 77.7096 61.3745 78.5235 60.0597 78.5235H58.8389L58.6511 76.2383C58.2441 70.8228 55.0825 66.4717 50.6374 65.1882C48.321 64.4995 46.2549 64.7813 43.6255 66.1586C42.4672 66.7534 41.2151 67.2542 40.9021 67.2542C40.5577 67.2542 39.3369 66.7221 38.1787 66.0647C36.2379 65.0317 35.8309 64.9065 33.7023 64.9065C31.8554 64.9065 31.0415 65.063 29.852 65.6265C26.346 67.3795 23.9356 71.1046 23.2783 75.8001L22.9339 78.5235H21.6192C19.3966 78.5235 17.1428 76.6453 16.4541 74.2349C16.0159 72.5758 16.2663 70.7602 17.268 68.7255C18.2071 66.8786 18.2384 65.9082 17.3932 63.4039C16.6106 61.0562 16.7672 59.0528 17.9254 56.8928L18.7393 55.4529L20.8053 56.4859C21.9635 57.0493 24.0295 57.8945 25.4069 58.3328ZM37.6465 68.4438C39.9004 69.8524 41.7473 69.8211 44.5333 68.3499C48.0705 66.4717 50.9818 66.9412 53.5486 69.7898C54.206 70.5098 55.0199 71.7306 55.3642 72.5132C56.0216 73.9532 56.5851 77.3965 56.3346 78.1165C56.2094 78.4295 52.8286 78.5235 40.8395 78.5235H25.4695L25.626 76.3948C25.9077 72.701 27.9112 69.289 30.6659 67.8803C32.638 66.8786 35.5179 67.0977 37.6465 68.4438Z" fill="#143FD9"/>
<path id="Vector_2" d="M27.1285 16.2611C22.3391 17.2002 17.8627 21.6452 16.1723 27.1233C13.2298 36.577 18.4262 47.3453 26.8155 49.1609C28.1615 49.4426 28.8815 49.8496 30.1023 50.9765C32.857 53.5434 36.3004 54.7329 40.8707 54.7329C45.5662 54.7329 48.9157 53.5747 52.0147 50.9139C53.0477 50.0374 54.112 49.4113 55.145 49.1609C56.0215 48.9418 57.3363 48.4409 58.1189 48.0966C59.9345 47.2201 63.3465 43.7767 64.4734 41.6794C66.4142 38.0482 67.1029 32.2571 66.1012 28.2816C64.8491 23.3043 60.4666 17.6071 58.4319 18.2645C57.3363 18.6088 57.7432 19.6105 59.684 21.52C63.3778 25.1512 65.0056 30.598 63.9726 35.7944C63.3152 39.0186 61.9066 41.8359 60.0284 43.7141C58.5571 45.1854 55.8024 46.9071 55.4581 46.5627C55.3642 46.4688 55.5207 45.7488 55.8024 44.9976C56.0841 44.215 56.3346 42.6185 56.3346 41.2725C56.3659 36.7961 54.2685 33.7596 48.947 30.6606C45.2532 28.5007 44.2202 28.125 41.8098 27.9059C39.0238 27.6555 37.1143 28.2816 32.9509 30.7858C28.7563 33.2901 28.005 33.9788 26.7216 36.577C25.4381 39.1751 25.219 42.1177 26.0955 44.7784C26.5024 45.9367 26.5964 46.594 26.3772 46.594C25.626 46.594 22.8086 44.6845 21.5878 43.3698C15.108 36.3578 17.0801 23.4295 25.2503 19.4227C26.7216 18.7027 27.3789 18.5775 29.6641 18.5775C32.231 18.5775 32.4188 18.6401 35.4239 20.1427C38.3038 21.5826 38.6795 21.7078 40.902 21.7078C43.1245 21.7078 43.4689 21.6139 46.3488 20.174C49.2287 18.7027 49.6043 18.6088 52.4529 18.4523L55.4581 18.2645V17.3254C55.4581 16.4489 55.3642 16.3863 53.9242 16.1045C52.8912 15.9167 51.7017 15.948 50.3243 16.1985C48.4774 16.5428 47.6322 16.8871 44.1889 18.7027C43.688 18.9532 42.3733 19.2349 41.2776 19.2975C39.462 19.4227 39.1177 19.3288 36.4256 17.9827C32.5753 16.0419 30.3215 15.635 27.1285 16.2611ZM46.9435 32.2258C50.8565 34.4483 51.8895 35.3248 52.9851 37.2656C53.7677 38.7056 53.8929 39.2377 53.8929 41.429C53.8929 43.6828 53.799 44.1211 52.8286 45.9054C51.5451 48.2531 49.6043 50.1313 47.2253 51.2269C45.6914 51.9469 44.9401 52.0721 41.8411 52.166C37.4273 52.3226 35.5491 51.9156 33.1701 50.3817C27.7546 46.8758 26.252 40.0516 29.9771 35.7944C30.8536 34.824 34.3596 32.5075 37.1143 31.0989C39.9942 29.6589 42.9993 30.0032 46.9435 32.2258Z" fill="#143FD9"/>
<path id="Vector_3" d="M37.9907 33.2588C36.1125 33.9474 35.2673 34.9178 35.2673 36.3578C35.2673 39.8012 40.2133 42.1176 43.6879 40.3333C45.0966 39.6447 46.4426 38.1421 46.7244 36.9839C47.0374 35.7943 46.1609 34.2605 44.7523 33.5718C43.2184 32.8205 39.6185 32.664 37.9907 33.2588ZM43.5001 35.6065C44.5644 36.0135 44.5644 36.7021 43.5627 37.6412C42.0602 39.0499 39.775 38.956 38.1785 37.4534C37.5838 36.89 37.2081 35.9822 37.5525 35.9509C37.5838 35.9509 38.1785 35.7317 38.8672 35.4813C40.1507 34.9805 41.9976 35.0431 43.5001 35.6065Z" fill="#143FD9"/>
<path id="Vector_4" d="M37.4273 43.6515C36.676 44.5593 38.3351 46.1557 40.3385 46.4688C42.5297 46.8444 45.347 44.8097 44.5018 43.4949C44.2201 43.0254 43.0306 43.088 42.3419 43.6202C41.9976 43.8706 41.3402 44.0897 40.9019 44.0897C40.4637 44.0897 39.8063 43.8706 39.462 43.6202C38.6794 43.0254 37.9594 43.0254 37.4273 43.6515Z" fill="#143FD9"/>
<path id="Vector_5" d="M27.0032 28.219C26.2832 28.7511 26.4085 31.5058 27.191 31.9754C28.0675 32.5388 28.6936 31.6936 28.6936 29.972C28.6936 28.2503 27.9736 27.499 27.0032 28.219Z" fill="#143FD9"/>
<path id="Vector_6" d="M53.2984 28.6258C52.9854 29.471 53.0793 31.4118 53.4862 31.8187C54.801 33.1335 56.3035 30.5979 55.3018 28.7197C54.8949 27.9997 53.5801 27.9371 53.2984 28.6258Z" fill="#143FD9"/>
</g>
</svg>
