<svg width="86" height="82" viewBox="0 0 86 82" fill="none" xmlns="http://www.w3.org/2000/svg">
<g id="Group">
<path id="Vector" d="M29.5497 0.543541C19.1921 2.14214 10.6663 9.66885 7.70224 19.8932C7.13607 21.8248 6.96955 23.5566 6.83634 28.2192L6.66982 34.1473H4.50505C2.67333 34.1473 2.27368 34.2805 1.5743 34.9799C0.775003 35.7459 0.741699 35.979 0.741699 39.9755C0.741699 43.972 0.775003 44.2051 1.5743 44.9711C2.27368 45.7038 2.67333 45.8037 4.57166 45.8037H6.73642V49.7669C6.73642 54.2962 6.83634 54.7958 7.86876 54.7958C9.36744 54.7958 9.40075 54.596 9.40075 43.0062C9.40075 33.9808 9.50066 31.6495 9.93361 29.8511C11.6654 22.8905 16.328 17.029 22.5558 13.9651C26.7188 11.9335 29.1167 11.3673 33.5462 11.3673C41.7723 11.4007 48.9992 15.1973 53.5286 21.8914L54.6942 23.6565V28.8853V34.1473H53.6951C52.696 34.1473 52.696 34.1473 52.696 32.2157C52.696 29.8178 51.8967 28.2525 50.2315 27.3866C48.7994 26.6206 47.2341 26.8204 45.8687 27.8861C44.6697 28.8187 44.0369 30.4173 44.0369 32.4821V34.1473H38.4086H32.7802L33.2464 32.8484C34.4454 29.3515 30.9818 26.3209 27.5514 27.8861C27.0852 28.086 25.753 29.5847 24.5541 31.1832L22.4559 34.0807L18.5927 34.2139C14.7627 34.3138 14.7294 34.3138 13.6637 35.4129L12.5646 36.4786V52.2314C12.5646 70.0157 12.5313 69.8492 15.1623 72.7134C18.3928 76.177 22.789 77.1428 27.1851 75.3111C29.0168 74.5451 31.5479 71.9807 32.4138 70.0157C33.5462 67.4513 33.4796 63.9211 32.2806 61.39C30.7153 58.1595 27.618 55.9614 23.9546 55.5618C23.0221 55.4619 22.023 55.2287 21.8231 55.0289C21.1238 54.4961 21.3236 53.1972 22.1895 52.631C22.8889 52.1648 23.3218 52.1315 25.0869 52.4645C29.5497 53.2971 33.2797 56.0947 35.1781 60.1244C36.1439 62.1227 36.2105 62.5556 36.2105 65.9526C36.2105 69.2164 36.1106 69.8159 35.3446 71.4478C30.3157 82.0718 15.6286 82.1051 10.4998 71.4811C9.66718 69.7826 9.56727 69.1831 9.40075 64.454C9.30083 61.6231 9.10101 59.092 8.96779 58.8589C8.56814 58.2927 7.16938 58.3593 6.93625 58.9921C6.5033 60.0911 6.73642 67.6511 7.23598 69.6161C9.33414 77.7756 17.1939 83.1042 25.1869 81.8054C38.4752 79.6406 43.6706 63.5214 34.079 54.3628C31.1483 51.5653 27.0852 49.8002 23.5883 49.8002C21.4901 49.8002 20.4577 50.2998 19.4919 51.7651C18.5927 53.0973 18.526 54.1297 19.292 55.695C19.9248 57.0605 21.8565 58.0929 23.7215 58.1262C26.3192 58.1595 29.5164 60.624 30.3823 63.2883C31.4813 66.6187 29.9493 70.7151 26.9187 72.6134C25.4866 73.4794 24.9537 73.6126 22.8889 73.6126C20.824 73.6126 20.2912 73.4794 18.8591 72.6134C17.86 71.9807 16.8608 70.9815 16.2281 69.9824L15.2289 68.3505L15.129 57.0605L15.0291 45.8037H16.7276C17.8933 45.8037 18.4594 45.9369 18.5927 46.3033C18.6926 46.5697 19.3253 47.1359 19.9914 47.5355C21.1238 48.2349 21.6899 48.3015 27.1518 48.4014C34.6785 48.5679 35.7442 48.4014 37.3428 46.936L38.6084 45.8037H43.7705C48.1 45.8037 49.2324 45.9036 50.8976 46.4698C57.1587 48.6679 58.8572 48.7012 60.4891 46.8028L61.3217 45.8037H66.4838C71.3795 45.8037 71.6793 45.7704 72.0123 45.1043C72.7783 43.7056 72.0456 43.4724 66.6504 43.4724H61.6881L61.0553 42.1736C60.3226 40.7415 59.6232 40.3419 55.4602 38.9764C53.2621 38.277 52.696 37.944 52.696 37.4444C52.696 36.8449 53.1289 36.8116 68.0158 36.8116H83.3357V40.142V43.4391L79.6056 43.539L75.8423 43.6389V44.6381V45.6372L80.1052 45.7371C84.2349 45.837 84.3681 45.8037 85.1674 45.0044C85.9667 44.2051 86 44.0053 86 39.9755C86 35.979 85.9667 35.7459 85.1674 34.9799C84.5679 34.3804 84.0018 34.1473 83.0026 34.1473H81.6705L82.6696 32.7485C83.8019 31.1832 84.6678 28.6188 84.6678 26.8204C84.6678 25.0553 83.8019 22.4576 82.7362 20.9589C81.6039 19.3936 62.5207 4.3069 61.022 3.77403C57.8248 2.675 54.6942 5.23941 54.6942 8.96946V10.5014L52.6294 8.40329C47.6671 3.37439 41.7057 0.710068 34.5786 0.377022C32.9134 0.277115 30.6487 0.343719 29.5497 0.543541ZM38.4086 3.40769C38.6084 3.60751 38.8415 5.00629 38.9414 6.50497L39.1412 9.2692L37.5426 9.06937C36.6767 8.93616 35.0115 8.83624 33.8792 8.83624H31.781L31.5479 6.73809C31.448 5.60576 31.2482 4.24029 31.1483 3.70743L30.9818 2.74161L34.512 2.90813C36.4769 3.00804 38.2087 3.20786 38.4086 3.40769ZM28.9502 6.40505L29.15 9.03607L27.3516 9.43571C26.3525 9.66885 24.6873 10.2017 23.6549 10.6347L21.7232 11.434V10.668C21.7232 10.2683 21.6233 9.03607 21.5234 7.97034L21.3236 6.0054L22.9222 5.20611C25.1869 4.10708 28.1509 3.17456 28.484 3.5076C28.6505 3.64082 28.8503 4.93967 28.9502 6.40505ZM43.8704 5.07289C44.4366 5.33932 45.802 6.17192 46.9677 6.93792L49.0325 8.33669V10.9011C49.0325 12.3332 48.9659 13.4988 48.8993 13.4988C48.8327 13.4988 47.9335 12.9992 46.9011 12.3665C45.8354 11.7337 44.2701 10.9677 43.3375 10.6347C41.9388 10.1351 41.7057 9.90198 41.7057 9.13598C41.7057 8.66972 41.6057 7.33756 41.4725 6.17192L41.2727 4.10708L42.072 4.3402C42.5049 4.47342 43.3375 4.80646 43.8704 5.07289ZM69.7809 13.3656C80.8712 22.0912 81.071 22.2911 81.8037 24.7223C82.0368 25.4883 82.0035 25.4883 79.206 25.4883C77.0745 25.4883 76.2752 25.6215 75.8756 26.0211C75.5758 26.2876 75.3427 26.6539 75.3427 26.8204C75.3427 26.9869 75.5758 27.3533 75.8756 27.6197C76.2752 28.0194 77.0745 28.1526 79.206 28.1526C82.0035 28.1526 82.0368 28.1526 81.8037 28.8853C81.1376 31.0833 79.6389 32.7818 77.6074 33.6144C76.575 34.0474 74.6766 34.1473 66.6837 34.1473H56.9922L57.0921 20.8923C57.192 6.70479 57.192 6.8047 58.8572 6.17192C59.2236 6.03871 59.8563 6.03871 60.2893 6.20523C60.6889 6.37175 64.9519 9.56893 69.7809 13.3656ZM19.0589 10.4015L19.0256 12.9992L16.9941 14.4979C14.796 16.1298 12.7645 18.3612 10.9327 21.1587C10.2333 22.2245 9.73379 22.724 9.73379 22.391C9.73379 21.0588 11.5322 16.5295 12.931 14.2648C14.363 11.9668 18.0931 7.83713 18.7592 7.83713C18.9257 7.83713 19.0589 9.00277 19.0589 10.4015ZM53.3288 13.1991C54.5277 14.9975 54.6942 15.4637 54.6942 17.1623V19.1272L52.8958 17.2289C51.497 15.7635 51.1307 15.1307 51.1973 14.4979C51.5636 12.0334 51.7302 11.1675 51.8634 11.1675C51.93 11.1675 52.5961 12.1 53.3288 13.1991ZM49.632 29.8844C49.8984 30.1508 50.0317 31.6828 50.0317 34.5803C50.0317 36.9115 50.1982 39.1429 50.3647 39.4759C50.5978 39.9089 51.8634 40.4751 54.1281 41.1744C58.0912 42.3734 59.0237 42.873 59.0237 43.8721C59.0237 44.738 58.1245 45.8037 57.3918 45.8037C57.0921 45.8037 55.0606 45.2042 52.8625 44.4715C46.6679 42.3734 46.7013 42.44 46.7013 35.5794C46.7013 31.4497 46.8012 30.4506 47.2341 30.0176C47.8336 29.3848 49.0658 29.3182 49.632 29.8844ZM30.5488 30.4839C30.8485 30.8169 31.0484 31.4164 30.9818 31.7494C30.8818 32.0825 29.4165 34.2472 27.7513 36.5785C25.6198 39.5093 24.7206 41.0412 24.7872 41.5408C24.8871 42.3068 24.987 42.3068 30.1492 42.4733C35.7109 42.6398 36.0107 42.7397 36.044 44.3383C36.044 45.7038 35.5444 45.8037 28.6172 45.8037C24.7206 45.8037 21.7565 45.6705 21.3569 45.4707C20.3245 44.9045 19.6251 43.2393 19.9914 42.1736C20.2912 41.3743 24.9537 34.7468 27.7846 31.05C28.8836 29.6846 29.6496 29.518 30.5488 30.4839ZM6.73642 40.142V43.4724H5.07122H3.40602V40.142V36.8116H5.07122H6.73642V40.142ZM19.0589 38.7766C18.193 40.0088 17.5935 41.2744 17.4936 42.107C17.3271 43.4058 17.2605 43.4724 16.1948 43.4724H15.0624V40.3752C15.0624 38.6433 15.1623 37.1447 15.2956 37.0448C15.3955 36.9115 16.6277 36.8116 17.9599 36.8116H20.4244L19.0589 38.7766ZM44.1035 38.9431C44.2035 40.1087 44.5365 41.5741 44.8362 42.1736C45.136 42.7397 45.3691 43.3059 45.3691 43.3725C45.3691 43.4058 43.8704 43.4724 42.0387 43.4724C38.7749 43.4724 38.7083 43.4724 38.242 42.5399C37.2096 40.5417 36.6434 40.3085 32.3139 40.142L28.3174 39.9755L29.5497 38.3769L30.7486 36.8116H37.3428H43.937L44.1035 38.9431Z" fill="#143FD9"/>
<path id="Vector_2" d="M67.0832 17.1622C62.7537 19.7933 66.5171 26.3208 71.0131 23.9896C73.7108 22.5908 73.6441 18.3279 70.8799 17.029C69.3812 16.3296 68.4154 16.3629 67.0832 17.1622ZM70.347 19.7933C70.5136 20.1596 70.6801 20.5926 70.6801 20.7924C70.6801 21.3585 69.1481 22.1911 68.5486 21.958C67.8159 21.6916 67.5162 20.2928 68.0158 19.66C68.6152 18.9607 69.9141 19.0273 70.347 19.7933Z" fill="#143FD9"/>
</g>
</svg>
