<svg width="59" height="85" viewBox="0 0 59 85" fill="none" xmlns="http://www.w3.org/2000/svg">
<g id="Group">
<path id="Vector" d="M43.2475 0.955475C40.7091 1.77964 38.0388 4.25214 37.4454 6.32903C37.1487 7.31803 37.0168 7.41693 35.9949 7.31803C32.7642 7.02133 24.1599 7.1532 23.072 7.48286L21.8192 7.8455L21.4566 6.49387C20.9951 4.71367 17.9292 1.54887 16.8413 1.71371C16.4457 1.77964 15.9512 2.07634 15.7534 2.37304C15.4897 2.83457 15.7204 3.23017 17.105 4.54884C18.127 5.53783 18.9182 6.62573 19.116 7.28506C19.4127 8.40593 19.3797 8.40593 17.7973 9.1312L16.182 9.85646L14.9952 8.5378C13.5776 6.98837 11.8963 6.03233 9.98423 5.73563C9.19303 5.60377 8.66556 5.373 8.7315 5.14223C8.79743 4.94444 9.6216 4.35104 10.5447 3.85654C11.8963 3.13127 12.2589 2.73567 12.2589 2.14227C12.2589 0.164276 9.09413 1.12031 6.7535 3.75764C5.23704 5.4719 4.6766 7.08727 4.6766 9.62569C4.6766 11.6696 5.73154 14.1421 7.248 15.5927L8.17107 16.4827L7.248 18.3948C6.22604 20.4387 5.59967 23.5706 5.8634 25.0211C6.02824 25.8453 5.8634 26.109 4.54474 27.065C0.621712 29.8672 -0.993652 35.4715 0.819511 39.922C1.87444 42.4604 2.99531 43.8121 5.27 45.2956L7.248 46.5483L5.99527 49.2516C5.30297 50.7021 4.47881 52.779 4.14914 53.8339C3.62167 55.5482 3.62167 55.7789 4.08321 56.2405C4.90737 57.0646 5.83044 56.5372 6.29197 54.9548C6.9513 52.779 9.35786 47.801 9.75346 47.801C9.95126 47.801 11.0721 48.0977 12.193 48.4604C13.3468 48.823 14.6325 49.1197 15.0611 49.1197C15.7204 49.1197 15.8853 49.3834 16.3468 51.3944C17.4676 56.4712 20.6654 60.8888 24.6214 62.8338C26.3357 63.658 26.962 63.7898 29.4016 63.7898C31.8411 63.7898 32.4675 63.658 34.1817 62.8338C38.1377 60.8888 41.3355 56.4712 42.4563 51.3944C42.9179 49.3834 43.0827 49.1197 43.742 49.1197C44.1706 49.1197 45.4563 48.823 46.6101 48.4604C47.731 48.0977 48.8519 47.801 49.0497 47.801C49.6101 47.801 52.0496 53.3064 53.0057 56.7679C54.0276 60.4602 54.4232 66.4272 53.8298 69.2623C52.5112 75.5259 48.1266 79.5479 40.4454 81.4929C37.7751 82.1852 36.7201 82.2511 29.4016 82.2511C22.083 82.2511 21.028 82.1852 18.3577 81.4929C14.4347 80.5039 11.1051 78.8226 8.99523 76.7457C5.83044 73.6468 4.64364 70.1854 4.70957 64.3832C4.74254 62.3723 4.64364 60.5591 4.54474 60.3613C4.41287 60.1635 3.95134 59.9987 3.52277 59.9987C2.40191 59.9987 2.20411 60.9547 2.23708 65.603C2.27004 68.8337 2.40191 69.7568 3.16014 71.8666C3.65464 73.2183 4.11617 74.5699 4.21507 74.8666C4.34694 75.2622 3.88541 75.8226 2.63267 76.7787C0.654678 78.2622 0.0612793 79.2182 0.0612793 80.9654C0.0612793 82.5149 0.918411 83.9324 2.23708 84.5588C3.75354 85.2841 4.31397 85.1852 8.86336 83.7346L12.9512 82.383L15.4897 83.2072C19.8083 84.5588 22.5445 84.8885 29.4016 84.8885C36.2586 84.8885 38.9948 84.5588 43.3135 83.2072L45.8519 82.383L49.9398 83.7346C54.4892 85.1852 55.0496 85.2841 56.566 84.5588C57.8847 83.9324 58.7418 82.5149 58.7418 80.9654C58.7418 79.2182 58.1484 78.2622 56.1704 76.7787C54.9177 75.8226 54.4562 75.2622 54.5881 74.8666C54.687 74.5699 55.1814 73.2183 55.643 71.8666C57.7528 66.0975 56.4012 56.2075 52.4452 48.3944L51.5222 46.5483L52.9727 45.6582C58.7418 42.2956 60.4231 35.1418 56.7309 29.5705C56.1704 28.7134 55.0826 27.5595 54.3243 26.9991C52.9397 26.0101 52.9397 26.0101 52.8738 23.8013C52.8408 21.5266 52.2474 19.4168 51.1925 17.6036L50.5661 16.5487L51.5222 15.6256C53.7969 13.4498 54.7199 9.75756 53.7309 6.52683C53.2364 4.8785 51.1266 2.47194 49.4123 1.58184C47.9288 0.856575 44.6321 0.493942 43.2475 0.955475ZM48.6541 4.05434C50.4013 5.04333 50.4672 5.4719 48.8189 5.73563C46.9068 6.03233 45.2255 6.98837 43.808 8.5378L42.6212 9.85646L41.0058 9.16416C39.4564 8.50483 39.3904 8.4389 39.6212 7.5488C40.0498 6.09827 41.2036 4.6807 42.5223 3.95544C44.2365 3.06534 47.0057 3.0983 48.6541 4.05434ZM11.6985 8.96636C12.4238 9.39493 13.215 10.0213 13.4457 10.3839C13.8413 10.9773 13.6765 11.2081 11.7644 12.7575L9.65456 14.4718L8.66556 13.3509C7.3469 11.8345 6.52273 8.8345 7.248 8.10923C7.6436 7.68066 10.2809 8.20813 11.6985 8.96636ZM51.7529 8.80153C51.9178 10.0213 51.1595 12.1641 50.1046 13.3509L49.1156 14.5048L47.8629 13.3839C47.1706 12.7575 46.2145 11.9993 45.753 11.7026C45.0607 11.2411 44.9618 11.0103 45.2585 10.5158C45.9178 9.26306 48.9178 7.87846 50.665 8.01033C51.3903 8.0433 51.687 8.27406 51.7529 8.80153ZM32.8631 9.59273C42.4234 10.7466 49.709 16.3839 50.4013 23.2079L50.5991 25.12L48.9837 24.8563C46.4783 24.4607 45.8189 24.5266 45.4233 25.153C44.764 26.1749 45.5552 26.8013 48.1266 27.2299C51.9178 27.8562 54.1265 29.4386 55.4781 32.4716C56.9616 35.8012 56.0715 40.1198 53.4013 42.3615C51.9507 43.6143 46.8079 45.9879 44.6321 46.4494C41.2366 47.1417 38.2696 46.9109 34.4784 45.6582C30.4895 44.3066 28.4455 44.2077 25.7752 45.1967C21.1599 46.878 17.9292 47.2406 14.171 46.4494C11.9952 45.9879 6.8524 43.6143 5.40187 42.3615C3.72057 40.944 2.63267 38.4715 2.59971 36.0979C2.56674 32.4386 4.51177 29.4386 7.8414 27.9551C10.1161 26.9661 15.5886 26.5046 19.6764 26.9661C23.6983 27.3947 24.2917 27.6584 24.5555 28.9771C24.7862 30.098 26.5005 32.1749 27.4565 32.4716C27.984 32.6364 28.0829 32.999 28.0829 34.4825C28.0829 35.8341 27.951 36.3286 27.5554 36.4935C26.7972 36.7572 26.006 36.1968 25.7752 35.2407C25.4126 33.7902 23.4676 34.1858 23.4676 35.7352C23.4676 38.0099 26.3357 39.8231 28.3796 38.8011C29.3027 38.3396 29.5005 38.3396 30.4235 38.8011C32.5004 39.8231 35.3356 38.0759 35.3356 35.7682C35.3356 35.0759 35.1378 34.6144 34.8081 34.4825C33.951 34.1528 33.0938 34.5814 32.962 35.3396C32.8301 36.1968 31.973 36.7572 31.2477 36.4935C30.8521 36.3286 30.7202 35.8341 30.7202 34.4825C30.7202 32.999 30.8191 32.6364 31.3466 32.4716C32.3026 32.1749 34.0169 30.098 34.2477 28.9771C34.4784 27.7244 34.9729 27.4936 38.3025 27.0321C41.3355 26.6365 42.1596 26.109 41.5662 25.0211C41.1706 24.2629 39.5223 24.2299 36.2916 24.8563C34.1817 25.2519 34.0828 25.2189 33.2587 24.5266C31.5774 23.109 27.2258 23.109 25.5445 24.5266C24.7203 25.2519 24.6214 25.2519 22.3467 24.7903C19.9731 24.3288 11.237 24.4277 9.16006 24.9222L8.20403 25.153L8.40183 23.2409C9.16006 15.7245 17.7973 9.85646 28.9071 9.29603C29.4675 9.26306 31.2477 9.39493 32.8631 9.59273ZM31.5114 26.2409C32.6982 26.7024 31.6763 29.8342 30.2257 30.1969C28.94 30.5265 27.8192 30.065 27.2587 29.0101C26.6653 27.8562 26.5994 26.5046 27.1928 26.2738C27.7862 26.0101 30.918 26.0101 31.5114 26.2409ZM33.9839 48.0977C35.5334 48.6582 37.6102 49.1856 38.5663 49.3175C40.5443 49.5812 40.5772 49.6142 39.5882 52.5153C38.3355 56.2734 35.7971 59.3723 32.896 60.691C31.0829 61.5151 27.7203 61.5151 25.9071 60.691C24.1269 59.8668 22.1159 58.0536 20.8632 56.1086C19.9401 54.6251 18.5226 50.9658 18.5226 50.0098C18.5226 49.7131 19.3467 49.4494 20.9291 49.1527C22.2148 48.9219 24.1928 48.3944 25.2807 47.9659C28.0829 46.878 30.4565 46.9109 33.9839 48.0977ZM7.9403 79.1193C8.9293 80.0424 9.68753 80.8006 9.58863 80.8665C9.1271 81.1962 4.64364 82.416 3.91837 82.416C3.06124 82.416 2.36894 81.6248 2.36894 80.6358C2.36894 80.1742 5.43484 77.438 5.92934 77.471C6.0612 77.5039 6.9513 78.2292 7.9403 79.1193ZM54.7529 78.7896C55.6759 79.5149 56.4342 80.3391 56.4342 80.6358C56.4342 81.6248 55.7419 82.416 54.8848 82.416C54.1595 82.416 49.676 81.1962 49.2145 80.8665C49.0497 80.7347 52.5441 77.5039 52.8738 77.471C52.9727 77.471 53.8298 78.0644 54.7529 78.7896Z" fill="#143FD9"/>
<path id="Vector_2" d="M17.5334 17.208C16.3466 17.8343 15.2916 19.9442 15.7532 20.6695C16.3136 21.5925 17.6323 21.4277 18.1268 20.3398C18.3575 19.8453 18.8191 19.4497 19.1817 19.4497C19.5443 19.4497 20.0058 19.8453 20.2366 20.3398C20.7311 21.3947 21.852 21.6914 22.4454 20.9662C22.9728 20.3398 22.4454 18.4937 21.4893 17.6365C20.6652 16.9113 18.5553 16.6805 17.5334 17.208Z" fill="#143FD9"/>
<path id="Vector_3" d="M37.7752 17.4388C37.1158 17.8344 36.5554 18.5596 36.3246 19.3178C35.929 20.4717 35.962 20.6035 36.6213 21.131C37.5444 21.8892 38.1708 21.6585 38.5993 20.4057C38.8301 19.7464 39.1598 19.4497 39.6213 19.4497C40.0828 19.4497 40.4125 19.7464 40.6433 20.4057C41.0059 21.4607 41.6323 21.8563 42.4235 21.5596C43.8081 21.0321 43.0498 18.23 41.2696 17.3069C39.9839 16.6476 39.0279 16.6805 37.7752 17.4388Z" fill="#143FD9"/>
<path id="Vector_4" d="M15.9509 59.5702C15.7201 59.9987 15.819 60.7899 16.2805 62.2405C16.8739 64.2514 16.9069 64.3503 16.3135 65.5371C15.8849 66.3942 15.3904 66.8558 14.5992 67.1195C12.9509 67.647 12.0608 67.3503 10.3795 65.5701C8.76414 63.8888 8.00591 63.6251 7.31361 64.4492C6.75318 65.1415 7.31361 66.1964 9.15974 67.9107C9.95094 68.636 10.9729 69.8887 11.4344 70.6799C13.2146 73.7128 15.3904 74.7018 18.0278 73.6799C19.8739 72.9876 20.8959 71.603 21.0937 69.559C21.1926 68.2733 21.0607 67.614 20.2695 66.0646C19.7091 64.9767 19.1157 63.3943 18.8849 62.4712C18.6541 61.5811 18.2915 60.4603 18.0937 59.9987C17.5992 58.9768 16.3794 58.746 15.9509 59.5702ZM18.8519 69.2623C18.8519 69.559 18.5552 70.1854 18.1596 70.6799C17.3025 71.8008 15.5553 71.8667 14.5003 70.8118L13.7751 70.0865L15.1267 69.6579C15.852 69.3942 16.808 68.8338 17.2366 68.3722C17.9618 67.614 18.0278 67.581 18.4234 68.1085C18.6541 68.4382 18.8519 68.9327 18.8519 69.2623Z" fill="#143FD9"/>
<path id="Vector_5" d="M41.0389 59.4054C40.6104 59.9658 39.6214 62.8998 39.6214 63.6251C39.6214 63.9218 39.1598 65.0097 38.5994 66.0646C37.7423 67.647 37.5774 68.2404 37.7093 69.5591C37.9071 71.603 38.9291 72.9876 40.7752 73.6799C43.2477 74.6359 45.7861 73.614 47.0718 71.1415C47.3356 70.614 48.5224 69.1305 49.7092 67.8778C51.885 65.4712 52.1157 65.0427 51.4234 64.3504C50.6982 63.6251 50.0059 63.9218 48.4564 65.5701C46.8081 67.3174 45.885 67.647 44.2037 67.1196C43.4125 66.8558 42.918 66.3943 42.4895 65.5372C41.8961 64.3504 41.929 64.2515 42.5224 62.2405C42.984 60.8229 43.0829 59.9658 42.8851 59.5702C42.5224 58.9109 41.5005 58.812 41.0389 59.4054ZM43.7422 69.658L45.0279 70.0866L44.3026 70.8118C43.2477 71.8667 41.5005 71.8008 40.6433 70.6799C39.8521 69.691 39.7862 69.1635 40.3137 68.1745C40.6763 67.5152 40.6763 67.5152 41.5664 68.3723C42.0279 68.8338 43.0169 69.4272 43.7422 69.658Z" fill="#143FD9"/>
</g>
</svg>
